<svg version="1.1" id="Layer_1" xmlns="http://www.w3.org/2000/svg" xmlns:xlink="http://www.w3.org/1999/xlink" x="0px" y="0px"
	 width="100%" viewBox="0 0 578 186" enable-background="new 0 0 578 186" xml:space="preserve">
<path fill="#000000" opacity="1.000000" stroke="none" 
	d="
M447.000000,187.000000 
	C298.000000,187.000000 149.500000,187.000000 1.000000,187.000000 
	C1.000000,125.000000 1.000000,63.000000 1.000000,1.000000 
	C193.666672,1.000000 386.333344,1.000000 579.000000,1.000000 
	C579.000000,63.000000 579.000000,125.000000 579.000000,187.000000 
	C535.166687,187.000000 491.333344,187.000000 447.000000,187.000000 
M305.332153,90.807983 
	C305.202332,90.565895 305.072540,90.323814 304.929749,89.529930 
	C304.945160,89.346596 304.960602,89.163261 305.485596,88.676247 
	C305.941162,87.444336 306.396698,86.212418 306.897919,84.484955 
	C306.897919,84.484955 306.983917,83.994797 307.562775,83.750290 
	C308.946838,80.494499 310.506012,77.300285 311.677246,73.969666 
	C313.888672,67.681198 315.876923,61.314259 317.994446,55.000477 
	C317.994446,55.000477 317.967865,54.969559 318.535034,54.591217 
	C319.034790,53.340054 319.534546,52.088886 320.646423,50.699142 
	C320.376007,50.115993 320.105560,49.532845 319.449554,48.929272 
	C319.449554,48.929272 319.068024,48.988701 318.118835,49.020348 
	C314.686188,49.014526 311.248322,48.887405 307.822174,49.033661 
	C303.560394,49.215580 299.308258,49.623306 294.971252,50.631413 
	C294.637817,52.420700 294.304352,54.209988 293.951019,56.642323 
	C293.945923,57.071190 293.940826,57.500061 293.496857,57.985126 
	C293.309174,58.323978 293.121521,58.662834 292.923492,59.708149 
	C292.594513,60.821896 292.265533,61.935642 291.931274,63.493618 
	C291.931274,63.493618 291.942352,63.937740 292.000427,63.976147 
	C292.000427,63.976147 291.939117,63.951931 291.248322,64.117332 
	C289.217041,69.439667 287.185730,74.762001 285.101654,80.553566 
	C285.101654,80.553566 285.022919,81.019157 284.676147,81.176521 
	C284.607513,81.282021 284.456238,81.438683 284.484436,81.484222 
	C284.610504,81.687813 284.787750,81.859711 284.946869,82.671753 
	C284.938385,83.090775 284.929901,83.509804 284.236053,84.099823 
	C281.800446,91.401695 279.364838,98.703568 276.837311,106.648224 
	C276.283997,107.770500 275.730682,108.892776 274.693573,110.261833 
	C274.788269,110.841492 274.882965,111.421150 274.845276,112.680679 
	C273.886719,114.043411 272.928192,115.406143 271.578613,117.324791 
	C266.827637,104.012451 262.371063,91.524971 257.959930,78.227921 
	C254.817734,68.897682 251.691391,59.561993 248.491318,50.251652 
	C248.311691,49.729038 247.524506,49.415253 246.078873,48.983704 
	C239.203674,48.986122 232.327515,48.927608 225.453995,49.036186 
	C223.847244,49.061569 220.644241,48.316948 223.065598,52.693996 
	C226.975876,62.695900 230.857910,72.709091 234.843491,82.680908 
	C235.211258,83.601051 236.238358,84.257683 237.006302,85.668251 
	C237.043579,86.088806 237.080856,86.509369 237.062241,87.716942 
	C240.380905,97.218315 243.599274,106.756844 247.094696,116.192734 
	C247.885117,118.326454 249.639038,120.103241 250.889999,122.505249 
	C250.889999,122.505249 250.815125,122.963913 250.350311,123.434586 
	C252.953354,129.965729 255.556412,136.496872 258.607635,143.725571 
	C264.038605,143.814560 269.471619,144.033493 274.899780,143.947266 
	C278.573639,143.888916 282.240631,143.401337 286.021729,142.342468 
	C290.894745,129.379059 295.826569,116.437248 300.603638,103.438553 
	C301.971375,99.716888 302.891296,95.830627 304.009338,91.999207 
	C304.009338,91.999207 304.031525,92.007393 304.489716,91.838264 
	C304.778503,91.646980 304.952606,91.380707 305.015594,91.014618 
	C305.015594,91.014618 305.039917,91.008568 305.332153,90.807983 
M166.980865,48.455563 
	C166.823151,48.218460 166.665421,47.981354 166.507690,47.744255 
	C166.314575,48.123035 166.121475,48.501820 165.194611,48.904797 
	C164.460663,48.931805 163.726700,48.958809 162.242767,48.965633 
	C161.492615,48.953697 160.742477,48.941765 159.573044,48.468304 
	C158.695404,48.946037 157.817749,49.423775 156.457001,49.945900 
	C156.457001,49.945900 155.972900,49.977985 155.245407,49.995621 
	C153.821960,50.984818 152.398514,51.974018 150.996307,52.997623 
	C150.996307,52.997623 150.963547,52.973461 150.289078,53.056046 
	C148.873520,54.052269 147.457977,55.048489 145.736328,56.661797 
	C144.428207,59.142204 143.307602,61.750587 141.737106,64.051956 
	C140.882523,65.304276 139.263840,66.035179 138.559067,66.440018 
	C139.035461,62.026917 139.602600,57.620865 139.945908,53.197433 
	C140.094070,51.288361 139.915390,49.164799 136.063995,50.939701 
	C130.043747,50.946007 124.023506,50.952316 117.478958,50.535458 
	C116.985069,51.491383 116.109444,52.430233 116.065773,53.406296 
	C115.907501,56.944515 116.028343,60.495220 116.023544,64.969444 
	C116.034355,78.323456 116.045174,91.677475 116.022270,105.962364 
	C116.020538,117.972450 116.018806,129.982544 116.026421,142.535294 
	C116.036102,142.715927 116.045792,142.896576 116.452888,143.842972 
	C124.606300,143.607178 132.759720,143.371384 140.960205,142.182312 
	C140.972672,127.255569 140.823135,112.325966 141.086243,97.403641 
	C141.177246,92.241631 142.293579,87.097694 143.039505,81.259544 
	C145.387238,78.526176 147.734970,75.792809 150.757751,73.009445 
	C151.523682,72.371742 152.289627,71.734039 153.629044,70.821030 
	C154.424759,70.579933 155.220474,70.338837 156.438019,70.549324 
	C157.292343,70.076851 158.146652,69.604370 159.899734,69.081345 
	C162.601135,69.039368 165.302551,68.997383 168.481369,69.014580 
	C168.481369,69.014580 168.960220,69.061356 169.052032,69.624237 
	C170.218369,70.006889 171.384720,70.389542 172.993408,70.917328 
	C172.993408,64.120651 173.097488,58.224777 172.902222,52.338829 
	C172.864868,51.212620 171.648193,50.125534 170.232727,48.989735 
	C169.488708,48.992332 168.744690,48.994930 167.505173,48.977432 
	C167.505173,48.977432 167.009430,48.990459 167.046265,48.959099 
	C167.046265,48.959099 167.048706,48.910709 166.980865,48.455563 
M361.567657,149.220871 
	C361.282654,149.420120 361.115509,149.691879 360.814545,150.636826 
	C359.871063,152.083496 358.927582,153.530182 357.528900,155.183456 
	C357.242249,155.391052 357.073669,155.669983 356.639069,156.589951 
	C354.461853,157.770737 352.284637,158.951508 349.410278,160.050186 
	C347.583282,160.656357 345.756287,161.262527 343.308411,161.886475 
	C342.894318,161.884491 342.480255,161.882492 341.917450,161.242218 
	C340.939606,161.485489 339.961792,161.728760 338.971039,162.911636 
	C338.969910,167.333801 338.736450,171.775482 339.105042,176.166611 
	C339.219971,177.535645 340.962555,178.768066 342.071289,180.642441 
	C346.494354,182.681671 350.831238,182.745865 355.702301,180.055832 
	C356.137878,180.068237 356.573456,180.080658 357.465637,180.578110 
	C359.656342,179.405457 361.847015,178.232803 364.663574,176.757278 
	C366.107788,176.168625 367.552002,175.579971 369.688568,174.932465 
	C372.436829,171.602005 375.185059,168.271545 378.465546,164.532715 
	C380.073578,162.046249 382.169159,159.747574 383.210846,157.042984 
	C390.210358,138.869537 396.968536,120.603302 403.842773,102.381424 
	C406.536285,95.241585 409.327301,88.138550 412.358490,80.800285 
	C412.222168,80.546005 412.085815,80.291725 411.935516,79.512886 
	C411.950317,79.338593 411.965088,79.164307 412.555237,78.583359 
	C416.332642,69.012268 420.110046,59.441174 423.260864,49.363277 
	C415.195251,49.547661 407.129608,49.732044 398.767303,50.531815 
	C398.557587,51.394688 398.347870,52.257561 397.749969,53.738117 
	C396.834106,56.827061 395.918213,59.916004 394.554047,63.213261 
	C394.272736,63.418331 394.101532,63.692249 394.072418,64.692741 
	C394.053986,65.131149 394.035553,65.569550 393.438690,66.422180 
	C392.669189,68.983772 391.899658,71.545357 391.075592,74.860420 
	C390.691040,76.557220 390.306458,78.254013 389.220428,80.103630 
	C387.185760,85.435745 385.151062,90.767860 383.107666,96.871605 
	C383.046234,97.898529 382.984802,98.925453 382.372284,100.053185 
	C382.239014,100.701393 382.105743,101.349602 381.941345,102.719330 
	C380.965668,104.816376 379.989990,106.913422 378.572662,109.232384 
	C378.294922,109.441872 378.127716,109.718246 378.032410,110.634758 
	C377.362000,111.080971 376.691589,111.527184 375.863342,111.501778 
	C375.674377,111.206856 375.409515,111.018875 374.922607,110.519478 
	C374.922607,110.519478 374.829926,110.086128 374.917755,109.401321 
	C374.272308,108.271484 373.626892,107.141647 372.888245,105.552391 
	C372.888245,105.552391 372.832733,105.086906 372.901520,104.325417 
	C371.283783,100.537567 369.666046,96.749725 367.909149,92.533760 
	C367.909149,92.533760 367.820160,92.092461 367.905365,91.328186 
	C364.924164,84.232216 361.942963,77.136246 358.986725,70.001381 
	C358.986725,70.001381 358.945587,70.023537 358.952362,69.245628 
	C356.604156,62.797993 354.255951,56.350361 351.367523,49.283821 
	C343.260956,49.199982 335.154388,49.116146 326.490356,49.444218 
	C326.542969,50.380428 326.360168,51.408470 326.684113,52.238846 
	C330.574585,62.211628 334.409515,72.210098 338.561432,82.074554 
	C339.901215,85.257744 342.126038,88.068405 344.206512,91.625977 
	C344.461304,92.416931 344.716095,93.207893 344.456024,94.471451 
	C346.018341,98.308594 347.580658,102.145737 349.168915,106.614517 
	C349.505310,107.378571 349.841736,108.142632 350.150543,109.666649 
	C354.711945,121.450119 359.273315,133.233597 363.895905,145.649841 
	C363.901245,146.073547 363.906555,146.497269 363.292480,147.062164 
	C362.875153,147.718231 362.457825,148.374283 362.024475,149.005936 
	C362.024475,149.005936 362.019470,149.031036 361.567657,149.220871 
M10.528838,12.146481 
	C10.347662,12.764545 10.166486,13.382610 9.977952,14.750859 
	C9.998025,15.500685 10.018098,16.250509 9.996742,17.936783 
	C10.008683,25.628874 10.020625,33.320965 9.990443,41.908981 
	C10.003724,44.601963 10.017006,47.294945 9.996322,50.926231 
	C10.005910,66.286888 10.015498,81.647552 9.984245,97.942894 
	C9.976260,111.028038 10.074615,124.114670 9.890727,137.197342 
	C9.840372,140.779800 10.749924,142.303619 14.594762,142.118561 
	C20.709997,141.824234 26.847256,141.987518 33.414791,141.986618 
	C33.414791,141.986618 33.855030,142.003708 34.095852,142.651657 
	C34.184525,142.864334 34.273201,143.077011 33.350353,143.071976 
	C25.509087,143.071976 17.667820,143.071976 9.826552,143.071976 
	C9.838849,143.506699 9.851146,143.941406 9.863441,144.376129 
	C18.012529,143.980743 26.161615,143.585373 34.877270,142.535522 
	C34.900307,127.698235 34.923340,112.860954 35.480549,98.011177 
	C35.658348,98.000671 35.836143,97.990158 36.947910,97.989304 
	C43.619492,97.980682 50.291073,97.972061 57.669971,97.972977 
	C58.782261,97.640129 59.894554,97.307274 61.507790,97.514404 
	C63.105202,97.346817 64.699135,97.085381 66.300560,97.025963 
	C85.014519,96.331512 100.742653,79.296371 101.862129,60.693840 
	C102.393562,51.862892 102.899712,42.755127 96.989723,35.002617 
	C96.989723,35.002617 96.962555,35.027905 96.914917,34.315159 
	C95.306557,31.860123 93.698196,29.405087 91.750618,26.380280 
	C89.846466,24.478142 87.942322,22.576004 85.652786,20.254208 
	C85.086815,20.194408 84.520844,20.134607 83.995544,20.037142 
	C83.995544,20.037142 83.941437,20.047428 83.671104,19.398508 
	C79.446541,17.915113 75.221970,16.431717 70.370529,14.922290 
	C69.952919,14.898479 69.535309,14.874668 68.994682,14.294746 
	C68.328819,14.168782 67.662964,14.042818 66.357239,13.917422 
	C65.930672,13.915892 65.504105,13.914362 64.932106,13.328991 
	C58.954174,13.208929 52.976242,13.088866 46.066322,12.974096 
	C41.377895,12.969694 36.689472,12.965292 31.373123,12.421448 
	C25.550100,12.336628 19.727076,12.251808 13.208205,12.108915 
	C12.508638,12.139712 11.809072,12.170510 10.528838,12.146481 
M461.132355,11.033682 
	C453.770569,11.022586 446.407654,10.947845 439.048492,11.081427 
	C438.134766,11.098013 437.241089,12.220834 435.946716,13.554541 
	C435.961548,16.548241 435.989014,19.541941 435.989319,22.535643 
	C435.993347,60.643986 435.993408,98.752327 435.994507,136.860672 
	C435.994568,139.123611 435.994507,141.386551 435.994507,144.000031 
	C443.023682,144.000031 449.329773,143.794556 455.614471,144.072998 
	C459.732452,144.255463 461.236633,142.912048 461.076324,138.687592 
	C460.548523,124.777390 460.321899,110.855812 459.967621,96.938919 
	C459.925446,95.281952 459.808960,93.626869 459.875183,91.527481 
	C459.875183,91.527481 460.029144,91.086006 460.962097,91.042458 
	C479.064423,91.369453 497.166290,91.734535 515.269836,91.966583 
	C517.151062,91.990692 519.042358,91.225075 521.748962,90.713333 
	C523.601257,85.004562 523.809448,79.368050 521.061035,73.077759 
	C520.967529,71.775284 520.874023,70.472801 520.691406,68.269737 
	C511.157684,68.229340 501.623962,68.188942 491.270050,68.032562 
	C489.516174,68.354004 487.762329,68.675446 485.256927,69.100708 
	C484.500916,69.066513 483.744934,69.032318 482.678009,68.324989 
	C481.124420,68.554214 479.570862,68.783440 477.086975,69.111786 
	C472.380859,69.187218 467.674774,69.262650 462.263306,69.153694 
	C461.427429,68.802895 460.591522,68.452095 459.919708,67.159805 
	C459.977356,56.111286 460.034973,45.062771 460.494415,33.905289 
	C460.494415,33.905289 460.882965,33.755775 461.829742,33.915829 
	C482.774139,33.915829 503.718567,33.915829 524.845398,33.915829 
	C524.845398,26.878376 524.845398,19.584961 524.815308,11.353764 
	C512.854126,11.294398 500.892883,11.235032 488.021088,11.011341 
	C479.370361,11.066103 470.719604,11.120864 461.132355,11.033682 
M565.692383,10.315797 
	C563.454651,9.950517 561.216980,9.585237 558.332031,9.109159 
	C557.897644,9.147455 557.463257,9.185751 556.228088,9.056555 
	C553.714478,9.994441 550.871521,10.467074 548.754517,11.965324 
	C544.085022,15.269918 543.638367,20.298124 543.926575,25.656223 
	C544.285645,32.332260 549.164856,37.003716 556.796143,36.853188 
	C557.501343,36.792278 558.206604,36.731369 559.732788,36.886089 
	C566.485168,37.688961 569.808167,33.448345 572.256775,28.169924 
	C575.096436,22.048475 571.865356,13.393438 565.997131,11.003981 
	C565.997131,11.003981 566.030457,10.996637 565.692383,10.315797 
M208.068253,50.943794 
	C205.921432,50.943615 203.768539,50.839554 201.628998,50.964317 
	C196.783844,51.246849 191.945236,51.642185 187.043823,52.928196 
	C187.068008,81.955200 187.092209,110.982201 187.050400,140.642548 
	C187.053345,141.066071 187.056290,141.489594 187.215820,142.709930 
	C194.778336,142.806961 202.340836,142.903976 210.427032,143.478561 
	C210.625870,142.196640 210.997192,140.914856 210.998230,139.632782 
	C211.021301,110.971748 211.005234,82.310684 210.988434,53.649632 
	C210.987656,52.317467 210.911392,50.985344 210.870285,49.653202 
	C210.256699,49.746872 209.643097,49.840542 209.009079,50.440960 
	C209.008286,50.610008 209.007492,50.779060 208.068253,50.943794 
M570.936462,141.095352 
	C570.954956,111.943535 570.984863,82.791702 570.949158,53.639954 
	C570.947754,52.497589 570.319153,51.355999 569.440918,50.104256 
	C569.262146,50.148705 569.083313,50.193153 567.988342,50.104664 
	C561.366089,50.163414 554.743896,50.222164 547.263794,50.182339 
	C546.847778,51.089855 546.079895,51.994282 546.071838,52.905388 
	C546.013000,59.613850 546.105835,66.323639 546.005920,73.959251 
	C546.005310,95.490791 545.984253,117.022385 546.049255,138.553726 
	C546.053711,140.017807 546.705750,141.479935 547.485168,143.674042 
	C554.434448,143.769333 561.384338,143.929352 568.332397,143.873444 
	C569.150513,143.866867 569.959106,142.674301 570.936462,141.095352 
z"/>
<path fill="#03213E" opacity="1.000000" stroke="none" 
	d="
M10.032567,41.013054 
	C10.020625,33.320965 10.008683,25.628874 10.341341,17.432629 
	C11.792553,15.949184 12.899165,14.969896 14.371620,13.949848 
	C15.857492,13.886069 16.979761,13.900406 18.097164,13.833508 
	C22.732592,13.555987 27.366549,13.253935 32.001045,12.960889 
	C36.689472,12.965292 41.377895,12.969694 46.836452,13.257205 
	C53.430233,13.664486 59.253887,13.788658 65.077538,13.912831 
	C65.504105,13.914362 65.930672,13.915892 66.852211,14.177805 
	C67.937355,14.575744 68.527527,14.713300 69.117699,14.850857 
	C69.535309,14.874668 69.952919,14.898479 70.902008,15.222792 
	C75.602798,17.031340 79.772118,18.539385 83.941437,20.047428 
	C83.941437,20.047428 83.995544,20.037142 84.026993,20.338646 
	C84.718346,20.651388 85.378258,20.662626 86.038170,20.673866 
	C87.942322,22.576004 89.846466,24.478142 91.798996,26.948940 
	C93.552444,30.021036 95.257500,32.524471 96.962555,35.027905 
	C96.962555,35.027905 96.989723,35.002617 96.985458,35.422691 
	C97.806908,40.515751 98.514809,45.213253 99.480957,49.857021 
	C102.131828,62.598316 97.815567,73.431030 89.876007,82.912674 
	C82.472168,91.754539 72.325012,95.385475 60.528183,95.995842 
	C52.803596,95.996399 45.544037,95.886581 38.293648,96.095299 
	C36.860310,96.136566 35.462238,97.402924 34.035019,98.074188 
	C34.022133,98.044052 34.084339,98.064850 33.789162,98.298798 
	C33.321938,99.324760 33.003380,100.116112 32.999733,100.908897 
	C32.941284,113.601349 32.923023,126.293991 32.518456,139.045532 
	C29.942369,139.734482 27.761959,140.794922 25.540043,140.890488 
	C22.450323,141.023407 19.122747,139.613663 16.267706,140.333847 
	C11.283681,141.591125 10.950543,139.225403 10.975472,135.503052 
	C11.049823,124.401222 11.043712,113.298241 10.957977,102.196564 
	C10.944604,100.464813 10.350598,98.737549 10.025085,97.008209 
	C10.015498,81.647552 10.005910,66.286888 10.280961,50.170807 
	C10.387922,46.614605 10.210245,43.813828 10.032567,41.013054 
M63.502834,76.024940 
	C63.681450,76.015930 63.860069,76.006927 64.733902,75.987289 
	C65.817963,75.296463 66.902023,74.605637 68.251709,73.333717 
	C69.491096,72.213577 70.730492,71.093437 72.661018,69.870399 
	C75.316414,66.355278 79.182747,63.286350 77.064445,57.166840 
	C77.067863,55.775459 77.071281,54.384079 77.543091,52.570042 
	C77.727417,44.255550 74.135101,38.377823 68.000610,36.999237 
	C68.000610,36.999237 68.017601,36.979431 67.922089,36.264202 
	C65.926414,35.197220 63.930740,34.130241 61.200497,33.054348 
	C60.466042,33.039139 59.731583,33.023926 58.477360,32.446938 
	C51.647984,32.321003 44.818611,32.195065 37.260124,32.062687 
	C36.530991,32.064449 35.801861,32.066212 34.286766,32.202045 
	C33.859318,35.135605 33.431870,38.069164 33.010632,41.939663 
	C33.006496,49.961182 33.002361,57.982700 32.978844,66.920761 
	C32.976151,69.038231 32.706142,71.201134 33.055923,73.258682 
	C33.332291,74.884369 34.370457,76.380562 35.715050,77.936264 
	C36.144421,77.955444 36.573788,77.974617 37.532341,78.532707 
	C39.682777,78.365601 41.833214,78.198494 44.741749,77.994591 
	C45.500412,78.006233 46.259071,78.017876 47.601177,78.569679 
	C50.728439,78.388557 53.855705,78.207428 57.422157,77.770508 
	C57.613564,77.495781 57.804974,77.221062 58.634125,76.933167 
	C59.059315,76.925804 59.484505,76.918442 60.608444,76.971100 
	C61.074020,76.975563 61.539600,76.980019 62.416279,76.774086 
	C62.675426,76.589958 62.858952,76.348373 63.502834,76.024940 
z"/>
<path fill="#0AAFE4" opacity="1.000000" stroke="none" 
	d="
M460.882965,33.755775 
	C460.882965,33.755775 460.494415,33.905289 459.939453,34.142944 
	C458.958038,35.243011 458.169464,36.101795 458.160767,36.968395 
	C458.065857,46.443451 458.047485,55.920258 458.159454,65.394806 
	C458.170197,66.303131 459.199280,67.199417 459.755646,68.101288 
	C460.591522,68.452095 461.427429,68.802895 462.762085,69.604965 
	C464.988770,70.372757 466.715332,70.955933 468.444733,70.964447 
	C485.276337,71.047249 502.108429,71.033897 518.964111,71.512558 
	C518.999207,75.465065 519.017944,78.952957 519.020447,82.440872 
	C519.025513,89.504196 518.627136,89.978729 511.365234,89.953941 
	C495.595581,89.900116 479.826294,89.713066 464.056732,89.701401 
	C462.714539,89.700401 461.371704,90.603119 460.029144,91.086006 
	C460.029144,91.086006 459.875183,91.527481 459.557434,92.086517 
	C459.136688,94.465851 458.946106,96.286095 458.944611,98.106476 
	C458.933899,111.259529 458.894104,124.413284 459.026764,137.565170 
	C459.057770,140.641632 458.343445,142.223022 454.888123,142.046783 
	C450.570770,141.826584 446.224884,142.154190 441.909271,141.917709 
	C440.546509,141.843048 439.241425,140.716171 437.840668,139.843857 
	C437.614227,139.331512 437.391754,139.112503 437.095581,138.493835 
	C437.114471,97.034927 437.141815,56.041996 437.348450,14.924010 
	C437.751404,14.601660 437.915833,14.363480 438.031097,14.068865 
	C438.041107,14.053312 438.059235,14.021057 438.521301,14.019648 
	C466.646484,14.021286 494.309570,14.024336 522.156433,14.401119 
	C522.525757,19.880253 522.780396,24.985235 522.811340,30.091568 
	C522.815308,30.744154 521.653809,31.403803 520.561218,32.037880 
	C503.306946,32.007874 486.523682,31.976820 469.740662,32.030396 
	C468.151520,32.035473 466.564117,32.571541 464.608673,32.869766 
	C463.507080,32.871483 462.772705,32.864521 461.922485,32.726112 
	C461.530212,32.707615 461.253815,32.820568 460.941772,33.137711 
	C460.906189,33.341896 460.882965,33.755775 460.882965,33.755775 
M459.489197,70.564903 
	C459.489197,70.564903 459.442047,70.478043 459.489197,70.564903 
z"/>
<path fill="#04213E" opacity="1.000000" stroke="none" 
	d="
M372.832733,105.086906 
	C372.832733,105.086906 372.888245,105.552391 372.937378,106.148972 
	C373.600983,107.859085 374.215454,108.972610 374.829926,110.086136 
	C374.829926,110.086128 374.922607,110.519478 375.105713,110.942009 
	C375.485382,111.624718 375.729492,111.827675 376.021179,111.973404 
	C376.691589,111.527184 377.362000,111.080971 378.251373,110.214355 
	C378.721619,109.581390 378.902954,109.320229 379.014313,109.010468 
	C379.989990,106.913422 380.965668,104.816376 382.203125,102.184891 
	C382.617706,101.084427 382.770538,100.518402 382.923370,99.952377 
	C382.984802,98.925453 383.046234,97.898529 383.445404,96.383865 
	C385.829376,90.581024 387.875641,85.265915 389.921875,79.950806 
	C390.306458,78.254013 390.691040,76.557220 391.441528,74.363617 
	C392.544067,71.247200 393.280609,68.627579 394.017151,66.007957 
	C394.035553,65.569550 394.053986,65.131149 394.255615,64.231277 
	C394.690887,63.562168 394.878693,63.307213 395.002319,63.004944 
	C395.918213,59.916004 396.834106,56.827061 398.218628,53.367180 
	C399.129211,52.667007 399.571198,52.337769 400.479431,52.006523 
	C407.626831,52.010944 414.307953,52.017372 420.941406,52.395103 
	C419.692200,56.027962 418.413116,59.263481 417.306519,62.556946 
	C415.472534,68.015007 413.749573,73.510361 411.979858,78.990005 
	C411.965088,79.164307 411.950317,79.338593 411.962158,80.021790 
	C411.988831,80.530693 412.073914,81.018753 412.073914,81.018753 
	C409.327301,88.138550 406.536285,95.241585 403.842773,102.381424 
	C396.968536,120.603302 390.210358,138.869537 383.210846,157.042984 
	C382.169159,159.747574 380.073578,162.046249 377.861481,164.791473 
	C374.503662,168.363907 371.749939,171.677597 368.996216,174.991302 
	C367.552002,175.579971 366.107788,176.168625 363.989136,176.927063 
	C361.212799,178.095581 359.110901,179.094315 357.009033,180.093063 
	C356.573456,180.080658 356.137878,180.068237 354.907593,180.038513 
	C350.061920,180.035141 346.010986,180.049072 341.960022,180.063019 
	C340.962555,178.768066 339.219971,177.535645 339.105042,176.166611 
	C338.736450,171.775482 338.969910,167.333801 339.362946,162.449509 
	C340.525299,161.951752 341.295715,161.916122 342.066162,161.880493 
	C342.480255,161.882492 342.894318,161.884491 344.030518,161.920868 
	C346.537537,161.347595 348.322449,160.739929 350.107391,160.132294 
	C352.284637,158.951508 354.461853,157.770737 357.033661,156.173538 
	C357.683380,155.546799 357.868652,155.286713 357.984070,154.976837 
	C358.927582,153.530182 359.871063,152.083496 361.138245,150.209229 
	C361.710999,149.578400 361.896851,149.328201 362.019470,149.031036 
	C362.019470,149.031036 362.024475,149.005936 362.348083,148.961945 
	C363.085052,148.252289 363.498444,147.586624 363.911865,146.920975 
	C363.906555,146.497269 363.901245,146.073547 364.167908,145.116943 
	C364.484802,143.475281 364.890808,142.223709 364.517639,141.280319 
	C361.466064,133.565720 358.359741,125.869537 355.073639,118.252510 
	C353.684479,115.032539 351.824219,112.015808 350.178101,108.906693 
	C349.841736,108.142632 349.505310,107.378571 349.363220,106.059311 
	C348.028625,101.669029 346.499756,97.833946 344.970886,93.998856 
	C344.716095,93.207893 344.461304,92.416931 344.056763,90.965485 
	C341.390808,84.073265 338.792389,77.873154 336.382446,71.600616 
	C334.146637,65.781197 332.112091,59.884426 330.093750,53.630486 
	C331.983795,52.826462 333.749939,52.262871 335.558472,52.033154 
	C339.020660,51.593395 342.506989,51.343456 346.241577,51.015499 
	C346.672058,51.017559 346.844238,51.018871 347.253845,51.278862 
	C348.648529,51.690048 349.805847,51.842556 351.119537,52.324501 
	C351.859497,54.186897 352.366852,55.754284 353.041077,57.246273 
	C354.972992,61.521736 356.972595,65.766624 358.945587,70.023529 
	C358.945587,70.023537 358.986725,70.001381 358.981628,70.418991 
	C359.679474,73.684952 360.003998,76.700302 361.170685,79.343987 
	C363.101654,83.719490 365.575226,87.855522 367.820160,92.092453 
	C367.820160,92.092461 367.909149,92.533760 367.965912,93.152306 
	C369.626038,97.542870 371.229401,101.314888 372.832733,105.086906 
z"/>
<path fill="#04223E" opacity="1.000000" stroke="none" 
	d="
M284.921417,83.928825 
	C284.929901,83.509804 284.938385,83.090775 284.973114,82.101761 
	C285.007202,81.360901 285.015076,81.190033 285.022919,81.019157 
	C285.022919,81.019157 285.101654,80.553566 285.461121,80.215836 
	C287.860077,74.569374 289.899597,69.260651 291.939117,63.951931 
	C291.939117,63.951931 292.000427,63.976147 292.130127,63.883965 
	C292.152100,63.544319 292.044312,63.296856 291.936554,63.049393 
	C292.265533,61.935642 292.594513,60.821896 293.161316,59.244431 
	C293.578003,58.496788 293.756866,58.212860 293.935730,57.928932 
	C293.940826,57.500061 293.945923,57.071190 294.251648,56.101013 
	C295.703857,52.791672 297.671661,51.767448 300.739838,51.943546 
	C305.336304,52.207352 309.973663,51.813725 314.560852,52.148602 
	C315.758789,52.236046 316.835510,53.984142 317.967865,54.969555 
	C317.967865,54.969559 317.994446,55.000477 317.669739,55.164135 
	C314.566986,62.165733 311.689728,68.965858 309.061951,75.861053 
	C308.071869,78.458961 307.659607,81.277069 306.983917,83.994797 
	C306.983917,83.994797 306.897919,84.484955 306.540161,84.819756 
	C305.780304,86.429680 305.378174,87.704803 304.976013,88.979919 
	C304.960602,89.163261 304.945160,89.346596 304.953491,90.037857 
	C304.977264,90.545792 305.039917,91.008568 305.039917,91.008568 
	C305.039917,91.008568 305.015594,91.014618 304.807068,91.140015 
	C304.341248,91.460587 304.152252,91.707916 304.031525,92.007393 
	C304.031525,92.007393 304.009338,91.999207 303.761749,91.991394 
	C303.346436,91.987862 303.178711,91.992134 302.920837,91.853622 
	C302.830719,91.710838 302.394562,91.618431 302.394562,91.618431 
	C302.394562,91.618431 302.090668,91.983383 302.057434,92.373077 
	C296.336273,107.989677 290.723358,123.245758 284.830383,138.392853 
	C284.310394,139.729355 282.025513,141.030838 280.447357,141.183929 
	C275.365051,141.677063 270.225677,141.821411 265.116394,141.714417 
	C261.656982,141.641968 258.344025,141.357239 256.944305,136.810684 
	C255.469482,132.020157 252.904053,127.565384 250.815125,122.963913 
	C250.815125,122.963913 250.889999,122.505249 250.932495,121.884338 
	C248.024185,113.074432 245.198013,104.837311 242.063095,96.719414 
	C240.752579,93.325798 238.786285,90.185432 237.118134,86.929924 
	C237.080856,86.509369 237.043579,86.088806 236.991821,84.968887 
	C233.054001,73.807205 229.130676,63.344898 225.012543,52.363106 
	C231.658737,52.047722 237.707275,51.484821 243.734985,51.655872 
	C245.377014,51.702465 247.393600,53.670795 248.450317,55.275925 
	C249.685318,57.151821 249.960571,59.634521 250.823395,61.785294 
	C253.138306,67.555595 255.544540,73.289268 257.914490,79.037491 
	C262.371063,91.524971 266.827637,104.012451 271.578613,117.324791 
	C272.928192,115.406143 273.886719,114.043411 275.128662,112.202286 
	C275.333832,111.154274 275.255615,110.584663 275.177368,110.015060 
	C275.730682,108.892776 276.283997,107.770500 277.176514,106.107841 
	C279.984314,98.354584 282.452850,91.141701 284.921417,83.928825 
z"/>
<path fill="#02213F" opacity="1.000000" stroke="none" 
	d="
M159.992325,48.929832 
	C160.742477,48.941765 161.492615,48.953697 162.836792,49.228401 
	C164.623703,49.324268 165.816559,49.157364 167.009430,48.990459 
	C167.009430,48.990459 167.505173,48.977432 167.935074,49.328499 
	C171.113251,56.158573 170.923431,62.582546 168.003952,68.955399 
	C165.302551,68.997383 162.601135,69.039368 159.451981,69.065407 
	C159.004227,69.049469 159.001266,68.970146 158.845245,68.762009 
	C158.126358,68.702385 157.563477,68.850891 156.781372,69.127357 
	C156.380142,69.536133 156.198166,69.816940 156.016190,70.097748 
	C155.220474,70.338837 154.424759,70.579933 153.015747,70.954079 
	C151.629196,71.744568 150.855957,72.402008 150.082703,73.059448 
	C147.734970,75.792809 145.387238,78.526176 142.639740,81.689751 
	C141.157928,85.282616 139.206467,88.427330 139.140732,91.610977 
	C138.814728,107.401680 138.986221,123.202637 138.599289,139.056122 
	C131.941986,142.252747 125.483292,141.368637 118.889641,139.783112 
	C118.582153,139.310562 118.331848,139.120987 118.014908,138.754761 
	C118.003517,138.505142 117.981102,138.005890 117.989731,137.536713 
	C118.004761,129.374802 118.011169,121.682060 118.276604,113.733765 
	C118.364258,111.656197 118.192886,109.834206 118.017456,107.674927 
	C118.015991,106.887932 118.018570,106.438202 118.266571,105.769485 
	C118.347656,104.370674 118.183311,103.190849 118.013672,101.592682 
	C118.010460,99.779808 118.012543,98.385262 118.282669,96.713074 
	C118.372482,93.960220 118.194267,91.485023 118.010666,88.564491 
	C118.010010,85.742203 118.014732,83.365234 118.286392,80.710327 
	C118.375465,77.958702 118.197609,75.485016 118.014267,72.581329 
	C118.011726,70.430733 118.014679,68.710136 118.290329,66.697929 
	C118.380280,63.272884 118.197548,60.139454 118.010925,56.672100 
	C118.007156,55.892929 118.007286,55.447674 118.161270,54.907837 
	C118.211739,54.540432 118.108360,54.267616 118.003311,53.663731 
	C118.005119,52.891247 118.008591,52.449833 118.478867,52.006760 
	C124.384918,52.005096 129.824158,52.005096 135.044754,52.005096 
	C135.846436,54.041218 136.432205,55.529003 137.020813,57.461937 
	C137.345673,60.938473 137.667725,63.969864 137.989777,67.001251 
	C139.263840,66.035179 140.882523,65.304276 141.737106,64.051956 
	C143.307602,61.750587 144.428207,59.142204 146.249985,56.330212 
	C148.163620,54.990242 149.563583,53.981853 150.963547,52.973465 
	C150.963547,52.973461 150.996307,52.997623 151.327438,52.963326 
	C153.102707,52.285107 154.546829,51.641178 156.284210,50.974266 
	C157.049896,50.645889 157.522308,50.340504 158.294678,49.997692 
	C159.060547,49.616787 159.526443,49.273312 159.992325,48.929832 
z"/>
<path fill="#0BAEE4" opacity="1.000000" stroke="none" 
	d="
M548.121643,50.280918 
	C554.743896,50.222164 561.366089,50.163414 568.461853,50.624168 
	C568.955933,79.799484 568.922974,108.455559 569.064209,137.110764 
	C569.082031,140.718704 568.180176,142.323853 564.322205,142.036057 
	C560.511475,141.751770 556.649841,141.775375 552.834900,142.029297 
	C549.169739,142.273254 547.918457,141.040253 547.940918,137.246887 
	C548.112793,108.258896 548.086426,79.269722 548.121643,50.280918 
z"/>
<path fill="#02213F" opacity="1.000000" stroke="none" 
	d="
M187.116394,140.009201 
	C187.092209,110.982201 187.068008,81.955200 187.531342,52.464134 
	C192.837524,52.000320 197.676971,52.278099 202.468735,51.919151 
	C206.855698,51.590530 208.135239,53.040070 208.099030,57.477760 
	C207.892914,82.732574 207.979843,107.989990 208.041214,133.246353 
	C208.045853,135.153076 208.626495,137.058380 208.949844,139.300827 
	C208.954880,140.086014 208.949448,140.534714 208.481049,140.986664 
	C201.050842,140.663010 194.083618,140.336105 187.116394,140.009201 
z"/>
<path fill="#0CAEE4" opacity="1.000000" stroke="none" 
	d="
M557.028870,9.224049 
	C557.463257,9.185751 557.897644,9.147455 558.919067,9.410514 
	C561.680847,10.140122 563.855652,10.568377 566.030457,10.996635 
	C566.030457,10.996637 565.997131,11.003981 566.028564,11.340872 
	C566.482422,12.367153 566.818542,13.131046 567.340149,13.734666 
	C574.384766,21.886705 571.471497,31.780806 561.091187,35.058491 
	C560.276245,35.315804 559.634155,36.120270 558.911804,36.670448 
	C558.206604,36.731369 557.501343,36.792278 556.340149,36.468254 
	C555.518127,35.764362 555.203857,35.304554 554.778137,35.147907 
	C549.690491,33.276119 546.638245,29.765671 545.970825,24.320957 
	C545.191711,17.965179 548.004639,13.847404 553.843628,11.497030 
	C555.019836,11.023583 555.972900,9.996094 557.028870,9.224049 
z"/>
<path fill="#1D92BA" opacity="1.000000" stroke="none" 
	d="
M547.692749,50.231628 
	C548.086426,79.269722 548.112793,108.258896 547.940918,137.246887 
	C547.918457,141.040253 549.169739,142.273254 552.834900,142.029297 
	C556.649841,141.775375 560.511475,141.751770 564.322205,142.036057 
	C568.180176,142.323853 569.082031,140.718704 569.064209,137.110764 
	C568.922974,108.455559 568.955933,79.799484 568.919922,50.690636 
	C569.083313,50.193153 569.262146,50.148705 569.720581,50.613312 
	C569.997498,79.494446 569.979492,107.866547 570.025452,136.238541 
	C570.028625,138.169937 570.512085,140.100555 570.772156,142.031525 
	C569.959106,142.674301 569.150513,143.866867 568.332397,143.873444 
	C561.384338,143.929352 554.434448,143.769333 547.248901,142.843735 
	C547.011536,120.755089 547.030396,99.496704 546.972229,78.238525 
	C546.967468,76.502617 546.437073,74.768158 546.150879,73.033020 
	C546.105835,66.323639 546.013000,59.613850 546.071838,52.905388 
	C546.079895,51.994282 546.847778,51.089855 547.692749,50.231628 
z"/>
<path fill="#2D8FAC" opacity="1.000000" stroke="none" 
	d="
M437.169159,15.049064 
	C437.141815,56.041996 437.114471,97.034927 437.160706,138.722778 
	C437.388123,139.709213 437.613342,139.926941 437.909943,140.070862 
	C439.241425,140.716171 440.546509,141.843048 441.909271,141.917709 
	C446.224884,142.154190 450.570770,141.826584 454.888123,142.046783 
	C458.343445,142.223022 459.057770,140.641632 459.026764,137.565170 
	C458.894104,124.413284 458.933899,111.259529 458.944611,98.106476 
	C458.946106,96.286095 459.136688,94.465851 459.483337,92.308228 
	C459.808960,93.626869 459.925446,95.281952 459.967621,96.938919 
	C460.321899,110.855812 460.548523,124.777390 461.076324,138.687592 
	C461.236633,142.912048 459.732452,144.255463 455.614471,144.072998 
	C449.329773,143.794556 443.023682,144.000031 435.994507,144.000031 
	C435.994507,141.386551 435.994568,139.123611 435.994507,136.860672 
	C435.993408,98.752327 435.993347,60.643986 435.989319,22.535643 
	C435.989014,19.541941 435.961548,16.548241 436.220856,13.111811 
	C436.494995,12.669082 436.695801,12.771324 436.969971,12.925161 
	C437.515869,13.393019 437.787537,13.707038 438.059235,14.021057 
	C438.059235,14.021057 438.041107,14.053312 437.819519,14.159014 
	C437.329193,14.457361 437.186279,14.718810 437.169159,15.049064 
z"/>
<path fill="#0C1625" opacity="1.000000" stroke="none" 
	d="
M303.010986,91.996399 
	C303.178711,91.992134 303.346436,91.987862 303.765350,92.001717 
	C302.891296,95.830627 301.971375,99.716888 300.603638,103.438553 
	C295.826569,116.437248 290.894745,129.379059 285.505432,142.694702 
	C276.045898,143.040634 267.102661,143.034332 258.159454,143.028015 
	C255.556412,136.496872 252.953354,129.965729 250.582718,123.199249 
	C252.904053,127.565384 255.469482,132.020157 256.944305,136.810684 
	C258.344025,141.357239 261.656982,141.641968 265.116394,141.714417 
	C270.225677,141.821411 275.365051,141.677063 280.447357,141.183929 
	C282.025513,141.030838 284.310394,139.729355 284.830383,138.392853 
	C290.723358,123.245758 296.336273,107.989677 302.286896,92.376328 
	C302.549622,91.989883 303.010986,91.996399 303.010986,91.996399 
z"/>
<path fill="#071122" opacity="1.000000" stroke="none" 
	d="
M60.996429,95.997154 
	C72.325012,95.385475 82.472168,91.754539 89.876007,82.912674 
	C97.815567,73.431030 102.131828,62.598316 99.480957,49.857021 
	C98.514809,45.213253 97.806908,40.515751 96.976448,35.434708 
	C102.899712,42.755127 102.393562,51.862892 101.862129,60.693840 
	C100.742653,79.296371 85.014519,96.331512 66.300560,97.025963 
	C64.699135,97.085381 63.105202,97.346817 61.254486,97.000252 
	C61.001183,96.486099 60.996429,95.997154 60.996429,95.997154 
z"/>
<path fill="#2C91B2" opacity="1.000000" stroke="none" 
	d="
M460.495605,91.064232 
	C461.371704,90.603119 462.714539,89.700401 464.056732,89.701401 
	C479.826294,89.713066 495.595581,89.900116 511.365234,89.953941 
	C518.627136,89.978729 519.025513,89.504196 519.020447,82.440872 
	C519.017944,78.952957 518.999207,75.465065 518.679565,71.211166 
	C509.299866,70.295227 500.227264,70.192093 491.158142,69.954086 
	C489.434387,69.908852 487.724670,69.329704 486.008453,68.996902 
	C487.762329,68.675446 489.516174,68.354004 491.960602,68.393570 
	C502.027588,68.893158 511.404022,69.031738 520.780457,69.170326 
	C520.874023,70.472801 520.967529,71.775284 520.966919,73.942802 
	C520.891541,80.147194 520.910278,85.486542 520.928955,90.825890 
	C519.042358,91.225075 517.151062,91.990692 515.269836,91.966583 
	C497.166290,91.734535 479.064423,91.369453 460.495605,91.064232 
z"/>
<path fill="#071122" opacity="1.000000" stroke="none" 
	d="
M257.937195,78.632706 
	C255.544540,73.289268 253.138306,67.555595 250.823395,61.785294 
	C249.960571,59.634521 249.685318,57.151821 248.450317,55.275925 
	C247.393600,53.670795 245.377014,51.702465 243.734985,51.655872 
	C237.707275,51.484821 231.658737,52.047722 225.012543,52.363106 
	C229.130676,63.344898 233.054001,73.807205 236.968307,84.653099 
	C236.238358,84.257683 235.211258,83.601051 234.843491,82.680908 
	C230.857910,72.709091 226.975876,62.695900 223.103943,51.915005 
	C224.954086,50.752903 226.750748,50.154408 228.580429,50.025986 
	C234.720642,49.595020 240.872620,49.331741 247.020096,49.004272 
	C247.524506,49.415253 248.311691,49.729038 248.491318,50.251652 
	C251.691391,59.561993 254.817734,68.897682 257.937195,78.632706 
z"/>
<path fill="#020C1D" opacity="1.000000" stroke="none" 
	d="
M138.982422,138.999985 
	C138.986221,123.202637 138.814728,107.401680 139.140732,91.610977 
	C139.206467,88.427330 141.157928,85.282616 142.590790,82.032730 
	C142.293579,87.097694 141.177246,92.241631 141.086243,97.403641 
	C140.823135,112.325966 140.972672,127.255569 140.475586,142.619888 
	C132.012451,143.064056 124.033966,143.070648 116.055473,143.077240 
	C116.045792,142.896576 116.036102,142.715927 116.299164,142.039764 
	C116.734520,140.365677 116.897148,139.187134 117.290100,138.006989 
	C117.520424,138.005371 117.981102,138.005890 117.981102,138.005890 
	C117.981102,138.005890 118.003517,138.505142 118.009933,139.002274 
	C118.016350,139.499405 118.040779,139.994095 118.130035,140.387344 
	C124.670540,141.130753 131.120300,141.538177 137.576309,141.706284 
	C138.021225,141.717865 138.512634,139.943695 138.982422,138.999985 
z"/>
<path fill="#091222" opacity="1.000000" stroke="none" 
	d="
M347.016449,51.020184 
	C346.844238,51.018871 346.672058,51.017559 345.775757,51.010387 
	C340.741302,51.005890 336.430634,50.977085 332.120728,51.022041 
	C330.130310,51.042797 328.128326,51.198364 329.988953,54.021713 
	C332.112091,59.884426 334.146637,65.781197 336.382446,71.600616 
	C338.792389,77.873154 341.390808,84.073265 343.926514,90.677231 
	C342.126038,88.068405 339.901215,85.257744 338.561432,82.074554 
	C334.409515,72.210098 330.574585,62.211628 326.684113,52.238846 
	C326.360168,51.408470 326.542969,50.380428 327.057587,49.532837 
	C335.719116,49.715210 343.813416,49.808971 351.907715,49.902725 
	C354.255951,56.350361 356.604156,62.797993 358.948975,69.634583 
	C356.972595,65.766624 354.972992,61.521736 353.041077,57.246273 
	C352.366852,55.754284 351.859497,54.186897 350.889038,52.059330 
	C349.340240,51.316536 348.178345,51.168362 347.016449,51.020184 
z"/>
<path fill="#000714" opacity="1.000000" stroke="none" 
	d="
M208.944016,140.983429 
	C208.949448,140.534714 208.954880,140.086014 208.969894,138.836914 
	C208.988556,109.007050 208.997620,79.977577 209.006683,50.948112 
	C209.007492,50.779060 209.008286,50.610008 209.393097,50.414433 
	C209.819199,81.258934 209.861267,112.129967 209.903351,143.000992 
	C202.340836,142.903976 194.778336,142.806961 187.599182,142.336853 
	C189.797394,141.975891 191.617508,142.082748 193.426102,141.982162 
	C198.601242,141.694351 203.771713,141.322327 208.944016,140.983429 
z"/>
<path fill="#2C91B2" opacity="1.000000" stroke="none" 
	d="
M462.038330,32.857563 
	C462.772705,32.864521 463.507080,32.871483 465.077332,32.911415 
	C482.707184,32.956608 499.501282,32.993450 516.295044,32.940769 
	C517.875000,32.935814 519.453247,32.367134 521.032288,32.060181 
	C521.653809,31.403803 522.815308,30.744154 522.811340,30.091568 
	C522.780396,24.985235 522.525757,19.880253 522.163330,14.185129 
	C521.981445,13.308771 521.982178,13.022152 522.323853,12.587532 
	C523.387817,12.390194 524.116638,12.340870 524.845398,12.291546 
	C524.845398,19.584961 524.845398,26.878376 524.845398,33.915829 
	C503.718567,33.915829 482.774139,33.915829 461.356354,33.835800 
	C460.882965,33.755775 460.906189,33.341896 461.208313,33.136383 
	C461.686401,32.906433 461.862366,32.881996 462.038330,32.857563 
z"/>
<path fill="#14273D" opacity="1.000000" stroke="none" 
	d="
M208.537476,50.945953 
	C208.997620,79.977577 208.988556,109.007050 208.959442,138.500427 
	C208.626495,137.058380 208.045853,135.153076 208.041214,133.246353 
	C207.979843,107.989990 207.892914,82.732574 208.099030,57.477760 
	C208.135239,53.040070 206.855698,51.590530 202.468735,51.919151 
	C197.676971,52.278099 192.837524,52.000320 187.561417,51.995861 
	C191.945236,51.642185 196.783844,51.246849 201.628998,50.964317 
	C203.768539,50.839554 205.921432,50.943615 208.537476,50.945953 
z"/>
<path fill="#021025" opacity="1.000000" stroke="none" 
	d="
M117.989731,137.536713 
	C117.981102,138.005890 117.520424,138.005371 117.267342,137.537811 
	C117.003670,126.386650 116.993088,115.703056 116.990273,104.549652 
	C116.997192,92.467888 117.035599,80.855659 116.953072,69.244308 
	C116.940727,67.507881 116.361076,65.775475 116.043869,64.041214 
	C116.028343,60.495220 115.907501,56.944515 116.065773,53.406296 
	C116.109444,52.430233 116.985069,51.491383 117.740768,51.009720 
	C118.005745,51.658794 118.008904,51.833607 118.012054,52.008419 
	C118.008591,52.449833 118.005119,52.891247 118.000145,53.915672 
	C118.001572,54.666595 118.004501,54.834511 118.007423,55.002422 
	C118.007286,55.447674 118.007156,55.892929 118.004883,57.125290 
	C118.007698,60.938114 118.012665,63.963829 118.017639,66.989540 
	C118.014679,68.710136 118.011726,70.430733 118.008179,73.023796 
	C118.011536,76.260269 118.015488,78.624268 118.019455,80.988274 
	C118.014732,83.365234 118.010010,85.742203 118.005386,89.007210 
	C118.008537,92.260414 118.011581,94.625565 118.014633,96.990723 
	C118.012543,98.385262 118.010460,99.779808 118.007309,101.990234 
	C118.011215,103.866913 118.016182,104.927696 118.021149,105.988480 
	C118.018570,106.438202 118.015991,106.887932 118.010834,108.101364 
	C118.011368,110.573158 118.014473,112.281242 118.017578,113.989326 
	C118.011169,121.682060 118.004761,129.374802 117.989731,137.536713 
z"/>
<path fill="#868D95" opacity="1.000000" stroke="none" 
	d="
M210.165192,143.239777 
	C209.861267,112.129967 209.819199,81.258934 209.403320,50.161057 
	C209.643097,49.840542 210.256699,49.746872 210.870270,49.653202 
	C210.911392,50.985344 210.987656,52.317467 210.988434,53.649632 
	C211.005234,82.310684 211.021301,110.971748 210.998230,139.632782 
	C210.997192,140.914856 210.625870,142.196640 210.165192,143.239777 
z"/>
<path fill="#4EABC6" opacity="1.000000" stroke="none" 
	d="
M570.854309,141.563446 
	C570.512085,140.100555 570.028625,138.169937 570.025452,136.238541 
	C569.979492,107.866547 569.997498,79.494446 569.991516,50.668209 
	C570.319153,51.355999 570.947754,52.497589 570.949158,53.639954 
	C570.984863,82.791702 570.954956,111.943535 570.854309,141.563446 
z"/>
<path fill="#329ABB" opacity="1.000000" stroke="none" 
	d="
M556.628479,9.140303 
	C555.972900,9.996094 555.019836,11.023583 553.843628,11.497030 
	C548.004639,13.847404 545.191711,17.965179 545.970825,24.320957 
	C546.638245,29.765671 549.690491,33.276119 554.778137,35.147907 
	C555.203857,35.304554 555.518127,35.764362 555.990845,36.401466 
	C549.164856,37.003716 544.285645,32.332260 543.926575,25.656223 
	C543.638367,20.298124 544.085022,15.269918 548.754517,11.965324 
	C550.871521,10.467074 553.714478,9.994441 556.628479,9.140303 
z"/>
<path fill="#030C1B" opacity="1.000000" stroke="none" 
	d="
M400.013153,52.008533 
	C399.571198,52.337769 399.129211,52.667007 398.412720,53.058342 
	C398.347870,52.257561 398.557587,51.394688 399.377747,50.264107 
	C407.954590,49.954296 415.921021,49.912193 423.887451,49.870087 
	C420.110046,59.441174 416.332642,69.012268 412.267548,78.786682 
	C413.749573,73.510361 415.472534,68.015007 417.306519,62.556946 
	C418.413116,59.263481 419.692200,56.027962 420.650238,52.095261 
	C413.608826,51.618919 406.811005,51.813725 400.013153,52.008533 
z"/>
<path fill="#0E2239" opacity="1.000000" stroke="none" 
	d="
M10.004665,97.475555 
	C10.350598,98.737549 10.944604,100.464813 10.957977,102.196564 
	C11.043712,113.298241 11.049823,124.401222 10.975472,135.503052 
	C10.950543,139.225403 11.283681,141.591125 16.267706,140.333847 
	C19.122747,139.613663 22.450323,141.023407 25.540043,140.890488 
	C27.761959,140.794922 29.942369,139.734482 32.545311,139.417007 
	C32.957951,140.472122 32.966576,141.214691 32.975201,141.957245 
	C26.847256,141.987518 20.709997,141.824234 14.594762,142.118561 
	C10.749924,142.303619 9.840372,140.779800 9.890727,137.197342 
	C10.074615,124.114670 9.976260,111.028038 10.004665,97.475555 
z"/>
<path fill="#091222" opacity="1.000000" stroke="none" 
	d="
M350.164307,109.286674 
	C351.824219,112.015808 353.684479,115.032539 355.073639,118.252510 
	C358.359741,125.869537 361.466064,133.565720 364.517639,141.280319 
	C364.890808,142.223709 364.484802,143.475281 364.137329,144.800537 
	C359.273315,133.233597 354.711945,121.450119 350.164307,109.286674 
z"/>
<path fill="#24ADE3" opacity="1.000000" stroke="none" 
	d="
M485.632690,69.048805 
	C487.724670,69.329704 489.434387,69.908852 491.158142,69.954086 
	C500.227264,70.192093 509.299866,70.295227 518.655823,70.746567 
	C502.108429,71.033897 485.276337,71.047249 468.444733,70.964447 
	C466.715332,70.955933 464.988770,70.372757 463.114777,69.697159 
	C467.674774,69.262650 472.380859,69.187218 477.777771,69.331902 
	C479.975342,69.367386 481.482117,69.182755 482.988922,68.998131 
	C483.744934,69.032318 484.500916,69.066513 485.632690,69.048805 
z"/>
<path fill="#071122" opacity="1.000000" stroke="none" 
	d="
M237.090179,87.323433 
	C238.786285,90.185432 240.752579,93.325798 242.063095,96.719414 
	C245.198013,104.837311 248.024185,113.074432 250.962219,121.653877 
	C249.639038,120.103241 247.885117,118.326454 247.094696,116.192734 
	C243.599274,106.756844 240.380905,97.218315 237.090179,87.323433 
z"/>
<path fill="#329ABB" opacity="1.000000" stroke="none" 
	d="
M559.322266,36.778267 
	C559.634155,36.120270 560.276245,35.315804 561.091187,35.058491 
	C571.471497,31.780806 574.384766,21.886705 567.340149,13.734666 
	C566.818542,13.131046 566.482422,12.367153 566.030640,11.323991 
	C571.865356,13.393438 575.096436,22.048475 572.256775,28.169924 
	C569.808167,33.448345 566.485168,37.688961 559.322266,36.778267 
z"/>
<path fill="#7FCCE4" opacity="1.000000" stroke="none" 
	d="
M546.078369,73.496140 
	C546.437073,74.768158 546.967468,76.502617 546.972229,78.238525 
	C547.030396,99.496704 547.011536,120.755089 547.034546,142.478210 
	C546.705750,141.479935 546.053711,140.017807 546.049255,138.553726 
	C545.984253,117.022385 546.005310,95.490791 546.078369,73.496140 
z"/>
<path fill="#2C91B2" opacity="1.000000" stroke="none" 
	d="
M459.837677,67.630547 
	C459.199280,67.199417 458.170197,66.303131 458.159454,65.394806 
	C458.047485,55.920258 458.065857,46.443451 458.160767,36.968395 
	C458.169464,36.101795 458.958038,35.243011 459.738525,34.197426 
	C460.034973,45.062771 459.977356,56.111286 459.837677,67.630547 
z"/>
<path fill="#091222" opacity="1.000000" stroke="none" 
	d="
M318.251465,54.780384 
	C316.835510,53.984142 315.758789,52.236046 314.560852,52.148602 
	C309.973663,51.813725 305.336304,52.207352 300.739838,51.943546 
	C297.671661,51.767448 295.703857,52.791672 294.261597,55.779488 
	C294.304352,54.209988 294.637817,52.420700 295.476044,50.299179 
	C298.806976,49.967072 301.638550,50.079254 304.458038,49.942444 
	C309.332001,49.705944 314.198425,49.314911 319.068024,48.988701 
	C319.068024,48.988701 319.449554,48.929272 319.575378,49.257286 
	C319.812225,50.002773 319.923279,50.420246 320.034302,50.837723 
	C319.534546,52.088886 319.034790,53.340054 318.251465,54.780384 
z"/>
<path fill="#091222" opacity="1.000000" stroke="none" 
	d="
M307.273346,83.872543 
	C307.659607,81.277069 308.071869,78.458961 309.061951,75.861053 
	C311.689728,68.965858 314.566986,62.165733 317.651489,55.153866 
	C315.876923,61.314259 313.888672,67.681198 311.677246,73.969666 
	C310.506012,77.300285 308.946838,80.494499 307.273346,83.872543 
z"/>
<path fill="#030C1B" opacity="1.000000" stroke="none" 
	d="
M170.975586,49.020401 
	C171.648193,50.125534 172.864868,51.212620 172.902222,52.338829 
	C173.097488,58.224777 172.993408,64.120651 172.993408,70.917328 
	C171.384720,70.389542 170.218369,70.006889 169.401093,69.226135 
	C170.167435,67.344864 170.902771,65.870506 170.944183,64.376907 
	C171.086044,59.261715 170.984375,54.139771 170.975586,49.020401 
z"/>
<path fill="#021025" opacity="1.000000" stroke="none" 
	d="
M33.194996,141.971939 
	C32.966576,141.214691 32.957951,140.472122 32.922470,139.358063 
	C32.923023,126.293991 32.941284,113.601349 32.999733,100.908897 
	C33.003380,100.116112 33.321938,99.324760 33.755341,98.762222 
	C33.962807,113.329041 33.908916,127.666374 33.855030,142.003708 
	C33.855030,142.003708 33.414791,141.986618 33.194996,141.971939 
z"/>
<path fill="#FEFEFE" opacity="1.000000" stroke="none" 
	d="
M33.975441,142.327682 
	C33.908916,127.666374 33.962807,113.329041 34.050518,98.528275 
	C34.084339,98.064850 34.022133,98.044052 34.255634,98.008385 
	C34.489136,97.972717 34.946373,98.023666 34.946373,98.023666 
	C34.923340,112.860954 34.900307,127.698235 34.557716,142.912872 
	C34.238167,143.290207 34.361874,143.289673 34.361874,143.289673 
	C34.273201,143.077011 34.184525,142.864334 33.975441,142.327682 
z"/>
<path fill="#030C1B" opacity="1.000000" stroke="none" 
	d="
M138.274414,66.720634 
	C137.667725,63.969864 137.345673,60.938473 137.023956,57.027679 
	C137.016403,54.406872 137.008499,52.665459 137.000610,50.924049 
	C139.915390,49.164799 140.094070,51.288361 139.945908,53.197433 
	C139.602600,57.620865 139.035461,62.026917 138.274414,66.720634 
z"/>
<path fill="#101C2A" opacity="1.000000" stroke="none" 
	d="
M116.033707,64.505325 
	C116.361076,65.775475 116.940727,67.507881 116.953072,69.244308 
	C117.035599,80.855659 116.997192,92.467888 116.758652,104.545502 
	C116.519249,105.011177 116.055992,105.031487 116.055992,105.031487 
	C116.045174,91.677475 116.034355,78.323456 116.033707,64.505325 
z"/>
<path fill="#091222" opacity="1.000000" stroke="none" 
	d="
M284.578735,84.014328 
	C282.452850,91.141701 279.984314,98.354584 277.222473,105.786453 
	C279.364838,98.703568 281.800446,91.401695 284.578735,84.014328 
z"/>
<path fill="#091222" opacity="1.000000" stroke="none" 
	d="
M367.862762,91.710320 
	C365.575226,87.855522 363.101654,83.719490 361.170685,79.343987 
	C360.003998,76.700302 359.679474,73.684952 358.969147,70.438431 
	C361.942963,77.136246 364.924164,84.232216 367.862762,91.710320 
z"/>
<path fill="#232F3B" opacity="1.000000" stroke="none" 
	d="
M116.039131,105.496925 
	C116.055992,105.031487 116.519249,105.011177 116.750870,105.015320 
	C116.993088,115.703056 117.003670,126.386650 117.037018,137.539413 
	C116.897148,139.187134 116.734520,140.365677 116.294487,141.768433 
	C116.018806,129.982544 116.020538,117.972450 116.039131,105.496925 
z"/>
<path fill="#CCFFFF" opacity="1.000000" stroke="none" 
	d="
M524.830322,11.822655 
	C524.116638,12.340870 523.387817,12.390194 521.874634,12.447718 
	C510.386108,12.308434 499.682007,12.160950 488.957764,11.804489 
	C488.937622,11.595512 488.931671,11.175667 488.931671,11.175667 
	C500.892883,11.235032 512.854126,11.294398 524.830322,11.822655 
z"/>
<path fill="#071122" opacity="1.000000" stroke="none" 
	d="
M31.687084,12.691168 
	C27.366549,13.253935 22.732592,13.555987 18.097164,13.833508 
	C16.979761,13.900406 15.857492,13.886069 14.362232,13.644606 
	C13.959353,12.975744 13.931704,12.571366 13.904053,12.166989 
	C19.727076,12.251808 25.550100,12.336628 31.687084,12.691168 
z"/>
<path fill="#071122" opacity="1.000000" stroke="none" 
	d="
M65.004822,13.620911 
	C59.253887,13.788658 53.430233,13.664486 47.302444,13.254559 
	C52.976242,13.088866 58.954174,13.208929 65.004822,13.620911 
z"/>
<path fill="#021025" opacity="1.000000" stroke="none" 
	d="
M35.213463,98.017426 
	C34.946373,98.023666 34.489136,97.972717 34.268520,98.038521 
	C35.462238,97.402924 36.860310,96.136566 38.293648,96.095299 
	C45.544037,95.886581 52.803596,95.996399 60.528183,95.995842 
	C60.996429,95.997154 61.001183,96.486099 61.004013,96.730255 
	C59.894554,97.307274 58.782261,97.640129 57.013542,97.690399 
	C49.576057,97.598442 42.794998,97.789047 36.013943,97.979652 
	C35.836143,97.990158 35.658348,98.000671 35.213463,98.017426 
z"/>
<path fill="#AAE0FD" opacity="1.000000" stroke="none" 
	d="
M520.735962,68.720032 
	C511.404022,69.031738 502.027588,68.893158 492.370697,68.451553 
	C501.623962,68.188942 511.157684,68.229340 520.735962,68.720032 
z"/>
<path fill="#566069" opacity="1.000000" stroke="none" 
	d="
M258.383545,143.376801 
	C267.102661,143.034332 276.045898,143.040634 285.449890,143.076355 
	C282.240631,143.401337 278.573639,143.888916 274.899780,143.947266 
	C269.471619,144.033493 264.038605,143.814560 258.383545,143.376801 
z"/>
<path fill="#091222" opacity="1.000000" stroke="none" 
	d="
M291.593719,64.034630 
	C289.899597,69.260651 287.860077,74.569374 285.487488,79.981216 
	C287.185730,74.762001 289.217041,69.439667 291.593719,64.034630 
z"/>
<path fill="#CCFFFF" opacity="1.000000" stroke="none" 
	d="
M436.695801,12.771324 
	C436.695801,12.771324 436.494995,12.669082 436.416565,12.750069 
	C437.241089,12.220834 438.134766,11.098013 439.048492,11.081427 
	C446.407654,10.947845 453.770569,11.022586 461.597290,11.315199 
	C462.062195,11.596716 462.022278,12.015857 461.801544,12.131607 
	C461.580811,12.247358 461.095398,12.360853 460.709473,12.216235 
	C459.518677,12.166072 458.713806,12.260527 457.447540,12.333743 
	C450.222717,12.465446 443.459259,12.618384 436.695801,12.771324 
z"/>
<path fill="#FEFEFE" opacity="1.000000" stroke="none" 
	d="
M462.022278,12.015857 
	C462.022278,12.015857 462.062195,11.596716 462.065552,11.386170 
	C470.719604,11.120864 479.370361,11.066103 488.476379,11.093504 
	C488.931671,11.175667 488.937622,11.595512 488.501160,11.907299 
	C479.383881,12.151341 470.703064,12.083599 462.022278,12.015857 
z"/>
<path fill="#D6FFFF" opacity="1.000000" stroke="none" 
	d="
M521.338989,90.769608 
	C520.910278,85.486542 520.891541,80.147194 520.940674,74.335808 
	C523.809448,79.368050 523.601257,85.004562 521.338989,90.769608 
z"/>
<path fill="#0E2239" opacity="1.000000" stroke="none" 
	d="
M170.604156,49.005066 
	C170.984375,54.139771 171.086044,59.261715 170.944183,64.376907 
	C170.902771,65.870506 170.167435,67.344864 169.355194,68.944702 
	C168.960220,69.061356 168.481369,69.014580 168.242661,68.984985 
	C170.923431,62.582546 171.113251,56.158573 168.182831,49.338547 
	C168.744690,48.994930 169.488708,48.992332 170.604156,49.005066 
z"/>
<path fill="#030C1B" opacity="1.000000" stroke="none" 
	d="
M389.571167,80.027222 
	C387.875641,85.265915 385.829376,90.581024 383.449768,95.998062 
	C385.151062,90.767860 387.185760,85.435745 389.571167,80.027222 
z"/>
<path fill="#3A414D" opacity="1.000000" stroke="none" 
	d="
M246.549484,48.993988 
	C240.872620,49.331741 234.720642,49.595020 228.580429,50.025986 
	C226.750748,50.154408 224.954086,50.752903 223.069611,51.538509 
	C220.644241,48.316948 223.847244,49.061569 225.453995,49.036186 
	C232.327515,48.927608 239.203674,48.986122 246.549484,48.993988 
z"/>
<path fill="#020C1D" opacity="1.000000" stroke="none" 
	d="
M369.342407,174.961884 
	C371.749939,171.677597 374.503662,168.363907 377.595367,164.995651 
	C375.185059,168.271545 372.436829,171.602005 369.342407,174.961884 
z"/>
<path fill="#AFB7BF" opacity="1.000000" stroke="none" 
	d="
M34.274437,143.240097 
	C26.161615,143.585373 18.012529,143.980743 9.863441,144.376129 
	C9.851146,143.941406 9.838849,143.506699 9.826552,143.071976 
	C17.667820,143.071976 25.509087,143.071976 33.856113,143.180817 
	C34.361874,143.289673 34.238167,143.290207 34.274437,143.240097 
z"/>
<path fill="#A1AAB2" opacity="1.000000" stroke="none" 
	d="
M116.254181,143.460114 
	C124.033966,143.070648 132.012451,143.064056 140.452042,143.096527 
	C132.759720,143.371384 124.606300,143.607178 116.254181,143.460114 
z"/>
<path fill="#566069" opacity="1.000000" stroke="none" 
	d="
M423.574158,49.616684 
	C415.921021,49.912193 407.954590,49.954296 399.526062,49.956413 
	C407.129608,49.732044 415.195251,49.547661 423.574158,49.616684 
z"/>
<path fill="#3A414D" opacity="1.000000" stroke="none" 
	d="
M351.637634,49.593277 
	C343.813416,49.808971 335.719116,49.715210 327.336304,49.326881 
	C335.154388,49.116146 343.260956,49.199982 351.637634,49.593277 
z"/>
<path fill="#0D243E" opacity="1.000000" stroke="none" 
	d="
M136.532288,50.931877 
	C137.008499,52.665459 137.016403,54.406872 137.021149,56.582535 
	C136.432205,55.529003 135.846436,54.041218 135.044754,52.005096 
	C129.824158,52.005096 124.384918,52.005096 118.478867,52.006760 
	C118.008904,51.833607 118.005745,51.658794 118.002922,51.221302 
	C124.023506,50.952316 130.043747,50.946007 136.532288,50.931877 
z"/>
<path fill="#071122" opacity="1.000000" stroke="none" 
	d="
M83.806274,19.722969 
	C79.772118,18.539385 75.602798,17.031340 71.215439,15.235807 
	C75.221970,16.431717 79.446541,17.915113 83.806274,19.722969 
z"/>
<path fill="#14273D" opacity="1.000000" stroke="none" 
	d="
M208.481049,140.986664 
	C203.771713,141.322327 198.601242,141.694351 193.426102,141.982162 
	C191.617508,142.082748 189.797394,141.975891 187.520889,141.938446 
	C187.056290,141.489594 187.053345,141.066071 187.083405,140.325867 
	C194.083618,140.336105 201.050842,140.663010 208.481049,140.986664 
z"/>
<path fill="#727781" opacity="1.000000" stroke="none" 
	d="
M318.593445,49.004524 
	C314.198425,49.314911 309.332001,49.705944 304.458038,49.942444 
	C301.638550,50.079254 298.806976,49.967072 295.516388,49.950233 
	C299.308258,49.623306 303.560394,49.215580 307.822174,49.033661 
	C311.248322,48.887405 314.686188,49.014526 318.593445,49.004524 
z"/>
<path fill="#091222" opacity="1.000000" stroke="none" 
	d="
M344.713440,94.235153 
	C346.499756,97.833946 348.028625,101.669029 349.350220,105.743500 
	C347.580658,102.145737 346.018341,98.308594 344.713440,94.235153 
z"/>
<path fill="#030C1B" opacity="1.000000" stroke="none" 
	d="
M342.015656,180.352722 
	C346.010986,180.049072 350.061920,180.035141 354.580811,180.048584 
	C350.831238,182.745865 346.494354,182.681671 342.015656,180.352722 
z"/>
<path fill="#101C2A" opacity="1.000000" stroke="none" 
	d="
M36.480927,97.984482 
	C42.794998,97.789047 49.576057,97.598442 56.659882,97.685638 
	C50.291073,97.972061 43.619492,97.980682 36.480927,97.984482 
z"/>
<path fill="#091222" opacity="1.000000" stroke="none" 
	d="
M372.867126,104.706161 
	C371.229401,101.314888 369.626038,97.542870 368.035522,93.366364 
	C369.666046,96.749725 371.283783,100.537567 372.867126,104.706161 
z"/>
<path fill="#071122" opacity="1.000000" stroke="none" 
	d="
M96.938736,34.671532 
	C95.257500,32.524471 93.552444,30.021036 91.968613,27.233828 
	C93.698196,29.405087 95.306557,31.860123 96.938736,34.671532 
z"/>
<path fill="#0E2239" opacity="1.000000" stroke="none" 
	d="
M13.556129,12.137953 
	C13.931704,12.571366 13.959353,12.975744 13.996391,13.685364 
	C12.899165,14.969896 11.792553,15.949184 10.362055,16.964405 
	C10.018098,16.250509 9.998025,15.500685 10.213217,14.220345 
	C10.668822,13.193656 10.889164,12.697482 11.109505,12.201307 
	C11.809072,12.170510 12.508638,12.139712 13.556129,12.137953 
z"/>
<path fill="#030C1B" opacity="1.000000" stroke="none" 
	d="
M357.237335,180.335587 
	C359.110901,179.094315 361.212799,178.095581 363.676178,177.078491 
	C361.847015,178.232803 359.656342,179.405457 357.237335,180.335587 
z"/>
<path fill="#030C1B" opacity="1.000000" stroke="none" 
	d="
M393.727905,66.215073 
	C393.280609,68.627579 392.544067,71.247200 391.468811,73.986877 
	C391.899658,71.545357 392.669189,68.983772 393.727905,66.215073 
z"/>
<path fill="#030C1B" opacity="1.000000" stroke="none" 
	d="
M349.758850,160.091232 
	C348.322449,160.739929 346.537537,161.347595 344.340942,161.911972 
	C345.756287,161.262527 347.583282,160.656357 349.758850,160.091232 
z"/>
<path fill="#329ABB" opacity="1.000000" stroke="none" 
	d="
M565.861450,10.656215 
	C563.855652,10.568377 561.680847,10.140122 559.242676,9.465912 
	C561.216980,9.585237 563.454651,9.950517 565.861450,10.656215 
z"/>
<path fill="#2C91B2" opacity="1.000000" stroke="none" 
	d="
M482.833466,68.661560 
	C481.482117,69.182755 479.975342,69.367386 478.242920,69.282333 
	C479.570862,68.783440 481.124420,68.554214 482.833466,68.661560 
z"/>
<path fill="#0E2239" opacity="1.000000" stroke="none" 
	d="
M10.011505,41.461018 
	C10.210245,43.813828 10.387922,46.614605 10.297944,49.701653 
	C10.017006,47.294945 10.003724,44.601963 10.011505,41.461018 
z"/>
<path fill="#030C1B" opacity="1.000000" stroke="none" 
	d="
M155.990967,50.997253 
	C154.546829,51.641178 153.102707,52.285107 151.316818,52.946125 
	C152.398514,51.974018 153.821960,50.984818 155.617584,50.241676 
	C155.990173,50.657574 155.990570,50.827412 155.990967,50.997253 
z"/>
<path fill="#030C1B" opacity="1.000000" stroke="none" 
	d="
M150.626312,53.014755 
	C149.563583,53.981853 148.163620,54.990242 146.403046,56.021667 
	C147.457977,55.048489 148.873520,54.052269 150.626312,53.014755 
z"/>
<path fill="#091222" opacity="1.000000" stroke="none" 
	d="
M305.230804,88.828079 
	C305.378174,87.704803 305.780304,86.429680 306.517334,85.067528 
	C306.396698,86.212418 305.941162,87.444336 305.230804,88.828079 
z"/>
<path fill="#030C1B" opacity="1.000000" stroke="none" 
	d="
M159.782684,48.699070 
	C159.526443,49.273312 159.060547,49.616787 158.030304,49.970551 
	C157.290649,49.954395 157.115372,49.927952 156.940109,49.901512 
	C157.817749,49.423775 158.695404,48.946037 159.782684,48.699070 
z"/>
<path fill="#030C1B" opacity="1.000000" stroke="none" 
	d="
M341.991821,161.561356 
	C341.295715,161.916122 340.525299,161.951752 339.369385,161.979706 
	C339.961792,161.728760 340.939606,161.485489 341.991821,161.561356 
z"/>
<path fill="#091222" opacity="1.000000" stroke="none" 
	d="
M374.873840,109.743729 
	C374.215454,108.972610 373.600983,107.859085 372.984009,106.378685 
	C373.626892,107.141647 374.272308,108.271484 374.873840,109.743729 
z"/>
<path fill="#030C1B" opacity="1.000000" stroke="none" 
	d="
M156.227112,70.323532 
	C156.198166,69.816940 156.380142,69.536133 157.114914,69.130417 
	C158.112228,68.993721 158.556747,68.981934 159.001266,68.970146 
	C159.001266,68.970146 159.004227,69.049469 159.002594,69.090683 
	C158.146652,69.604370 157.292343,70.076851 156.227112,70.323532 
z"/>
<path fill="#030C1B" opacity="1.000000" stroke="none" 
	d="
M150.420227,73.034454 
	C150.855957,72.402008 151.629196,71.744568 152.729004,71.091736 
	C152.289627,71.734039 151.523682,72.371742 150.420227,73.034454 
z"/>
<path fill="#071122" opacity="1.000000" stroke="none" 
	d="
M85.845474,20.464037 
	C85.378258,20.662626 84.718346,20.651388 84.006653,20.357479 
	C84.520844,20.134607 85.086815,20.194408 85.845474,20.464037 
z"/>
<path fill="#091222" opacity="1.000000" stroke="none" 
	d="
M363.602173,146.991577 
	C363.498444,147.586624 363.085052,148.252289 362.356079,148.974152 
	C362.457825,148.374283 362.875153,147.718231 363.602173,146.991577 
z"/>
<path fill="#071122" opacity="1.000000" stroke="none" 
	d="
M69.056190,14.572802 
	C68.527527,14.713300 67.937355,14.575744 67.172142,14.177521 
	C67.662964,14.042818 68.328819,14.168782 69.056190,14.572802 
z"/>
<path fill="#091222" opacity="1.000000" stroke="none" 
	d="
M274.935486,110.138443 
	C275.255615,110.584663 275.333832,111.154274 275.194855,111.862350 
	C274.882965,111.421150 274.788269,110.841492 274.935486,110.138443 
z"/>
<path fill="#0E2239" opacity="1.000000" stroke="none" 
	d="
M167.027847,48.974777 
	C165.816559,49.157364 164.623703,49.324268 163.211792,49.238495 
	C163.726700,48.958809 164.460663,48.931805 165.841354,48.921970 
	C166.674973,48.929665 166.861832,48.920189 167.048706,48.910709 
	C167.048706,48.910709 167.046265,48.959099 167.027847,48.974777 
z"/>
<path fill="#030C1B" opacity="1.000000" stroke="none" 
	d="
M382.647827,100.002777 
	C382.770538,100.518402 382.617706,101.084427 382.218689,101.824135 
	C382.105743,101.349602 382.239014,100.701393 382.647827,100.002777 
z"/>
<path fill="#071122" opacity="1.000000" stroke="none" 
	d="
M10.819172,12.173894 
	C10.889164,12.697482 10.668822,13.193656 10.216896,13.845253 
	C10.166486,13.382610 10.347662,12.764545 10.819172,12.173894 
z"/>
<path fill="#0E2239" opacity="1.000000" stroke="none" 
	d="
M156.698547,49.923706 
	C157.115372,49.927952 157.290649,49.954395 157.730331,50.007977 
	C157.522308,50.340504 157.049896,50.645889 156.284210,50.974266 
	C155.990570,50.827412 155.990173,50.657574 155.981339,50.232857 
	C155.972900,49.977985 156.457001,49.945900 156.698547,49.923706 
z"/>
<path fill="#727781" opacity="1.000000" stroke="none" 
	d="
M320.340393,50.768433 
	C319.923279,50.420246 319.812225,50.002773 319.768188,49.267498 
	C320.105560,49.532845 320.376007,50.115993 320.340393,50.768433 
z"/>
<path fill="#091222" opacity="1.000000" stroke="none" 
	d="
M293.716309,57.957031 
	C293.756866,58.212860 293.578003,58.496788 293.166504,58.891197 
	C293.121521,58.662834 293.309174,58.323978 293.716309,57.957031 
z"/>
<path fill="#030C1B" opacity="1.000000" stroke="none" 
	d="
M167.014786,48.683136 
	C166.861832,48.920189 166.674973,48.929665 166.208237,48.909874 
	C166.121475,48.501820 166.314575,48.123035 166.507690,47.744255 
	C166.665421,47.981354 166.823151,48.218460 167.014786,48.683136 
z"/>
<path fill="#091222" opacity="1.000000" stroke="none" 
	d="
M357.756470,155.080139 
	C357.868652,155.286713 357.683380,155.546799 357.225708,155.888702 
	C357.073669,155.669983 357.242249,155.391052 357.756470,155.080139 
z"/>
<path fill="#091222" opacity="1.000000" stroke="none" 
	d="
M361.793579,149.125946 
	C361.896851,149.328201 361.710999,149.578400 361.264099,149.908905 
	C361.115509,149.691879 361.282654,149.420120 361.793579,149.125946 
z"/>
<path fill="#091222" opacity="1.000000" stroke="none" 
	d="
M284.849548,81.097839 
	C285.015076,81.190033 285.007202,81.360901 284.972931,81.787415 
	C284.787750,81.859711 284.610504,81.687813 284.484436,81.484222 
	C284.456238,81.438683 284.607513,81.282021 284.849548,81.097839 
z"/>
<path fill="#091222" opacity="1.000000" stroke="none" 
	d="
M375.942261,111.737595 
	C375.729492,111.827675 375.485382,111.624718 375.178802,111.151184 
	C375.409515,111.018875 375.674377,111.206856 375.942261,111.737595 
z"/>
<path fill="#091222" opacity="1.000000" stroke="none" 
	d="
M304.260620,91.922829 
	C304.152252,91.707916 304.341248,91.460587 304.805298,91.152428 
	C304.952606,91.380707 304.778503,91.646980 304.260620,91.922829 
z"/>
<path fill="#030C1B" opacity="1.000000" stroke="none" 
	d="
M378.793488,109.121429 
	C378.902954,109.320229 378.721619,109.581390 378.270691,109.927727 
	C378.127716,109.718246 378.294922,109.441872 378.793488,109.121429 
z"/>
<path fill="#030C1B" opacity="1.000000" stroke="none" 
	d="
M412.216187,80.909515 
	C412.073914,81.018753 411.988831,80.530693 411.969177,80.284073 
	C412.085815,80.291725 412.222168,80.546005 412.216187,80.909515 
z"/>
<path fill="#091222" opacity="1.000000" stroke="none" 
	d="
M305.186035,90.908279 
	C305.039917,91.008568 304.977264,90.545792 304.960022,90.313759 
	C305.072540,90.323814 305.202332,90.565895 305.186035,90.908279 
z"/>
<path fill="#091222" opacity="1.000000" stroke="none" 
	d="
M291.933899,63.271507 
	C292.044312,63.296856 292.152100,63.544319 292.101105,63.864761 
	C291.942352,63.937740 291.931274,63.493618 291.933899,63.271507 
z"/>
<path fill="#030C1B" opacity="1.000000" stroke="none" 
	d="
M394.778198,63.109100 
	C394.878693,63.307213 394.690887,63.562168 394.239655,63.902416 
	C394.101532,63.692249 394.272736,63.418331 394.778198,63.109100 
z"/>
<path fill="#000102" opacity="1.000000" stroke="none" 
	d="
M58.997128,33.008717 
	C59.731583,33.023926 60.466042,33.039139 61.650780,33.387543 
	C64.073242,34.806965 66.045418,35.893200 68.017601,36.979431 
	C68.017601,36.979431 68.000610,36.999237 68.138794,37.301552 
	C71.209557,42.733479 74.142128,47.863087 77.074707,52.992699 
	C77.071281,54.384079 77.067863,55.775459 76.767838,57.804512 
	C74.970787,62.285892 73.470337,66.129601 71.969894,69.973305 
	C70.730492,71.093437 69.491096,72.213577 67.759094,73.645111 
	C66.192894,74.328079 65.119301,74.699654 63.671219,75.055107 
	C62.167717,75.663017 61.038708,76.287048 59.909695,76.911079 
	C59.484505,76.918442 59.059315,76.925804 58.075081,76.692162 
	C56.327312,76.950607 55.138584,77.450058 53.516243,77.951294 
	C51.060997,77.978546 49.039368,78.004028 47.017735,78.029510 
	C46.259071,78.017876 45.500412,78.006233 43.927658,77.993652 
	C41.076763,77.993073 39.039959,77.993431 37.003159,77.993790 
	C36.573788,77.974617 36.144421,77.955444 35.368649,77.484299 
	C35.004223,75.099304 35.235516,73.121223 34.896645,71.246178 
	C34.570827,69.443382 33.654877,67.747231 32.998222,66.004219 
	C33.002361,57.982700 33.006496,49.961182 33.384144,41.367081 
	C34.196014,37.885662 34.634369,34.976818 35.072727,32.067978 
	C35.801861,32.066212 36.530991,32.064449 37.947083,32.323715 
	C45.421734,32.726067 52.209431,32.867393 58.997128,33.008717 
z"/>
<path fill="#0C1625" opacity="1.000000" stroke="none" 
	d="
M58.737244,32.727829 
	C52.209431,32.867393 45.421734,32.726067 38.311638,32.326935 
	C44.818611,32.195065 51.647984,32.321003 58.737244,32.727829 
z"/>
<path fill="#0C1625" opacity="1.000000" stroke="none" 
	d="
M77.308899,52.781372 
	C74.142128,47.863087 71.209557,42.733479 68.146606,37.293045 
	C74.135101,38.377823 77.727417,44.255550 77.308899,52.781372 
z"/>
<path fill="#0C1625" opacity="1.000000" stroke="none" 
	d="
M72.315460,69.921852 
	C73.470337,66.129601 74.970787,62.285892 76.752853,58.221703 
	C79.182747,63.286350 75.316414,66.355278 72.315460,69.921852 
z"/>
<path fill="#0C1625" opacity="1.000000" stroke="none" 
	d="
M32.988533,66.462494 
	C33.654877,67.747231 34.570827,69.443382 34.896645,71.246178 
	C35.235516,73.121223 35.004223,75.099304 35.046276,77.483292 
	C34.370457,76.380562 33.332291,74.884369 33.055923,73.258682 
	C32.706142,71.201134 32.976151,69.038231 32.988533,66.462494 
z"/>
<path fill="#0C1625" opacity="1.000000" stroke="none" 
	d="
M34.679749,32.135010 
	C34.634369,34.976818 34.196014,37.885662 33.381042,40.898613 
	C33.431870,38.069164 33.859318,35.135605 34.679749,32.135010 
z"/>
<path fill="#0C1625" opacity="1.000000" stroke="none" 
	d="
M67.969849,36.621819 
	C66.045418,35.893200 64.073242,34.806965 62.018063,33.391998 
	C63.930740,34.130241 65.926414,35.197220 67.969849,36.621819 
z"/>
<path fill="#14273D" opacity="1.000000" stroke="none" 
	d="
M47.309456,78.299591 
	C49.039368,78.004028 51.060997,77.978546 53.895977,77.974304 
	C55.467205,78.005806 56.225086,78.016060 56.982967,78.026306 
	C53.855705,78.207428 50.728439,78.388557 47.309456,78.299591 
z"/>
<path fill="#0C1625" opacity="1.000000" stroke="none" 
	d="
M57.202560,77.898407 
	C56.225086,78.016060 55.467205,78.005806 54.329590,77.972534 
	C55.138584,77.450058 56.327312,76.950607 57.756210,76.698746 
	C57.804974,77.221062 57.613564,77.495781 57.202560,77.898407 
z"/>
<path fill="#14273D" opacity="1.000000" stroke="none" 
	d="
M37.267750,78.263245 
	C39.039959,77.993431 41.076763,77.993073 43.548607,78.012054 
	C41.833214,78.198494 39.682777,78.365601 37.267750,78.263245 
z"/>
<path fill="#14273D" opacity="1.000000" stroke="none" 
	d="
M64.045708,75.071228 
	C65.119301,74.699654 66.192894,74.328079 67.626282,73.935661 
	C66.902023,74.605637 65.817963,75.296463 64.384857,75.760918 
	C64.035820,75.534546 64.045708,75.071228 64.045708,75.071228 
z"/>
<path fill="#0C1625" opacity="1.000000" stroke="none" 
	d="
M63.671219,75.055107 
	C64.045708,75.071228 64.035820,75.534546 64.037254,75.766235 
	C63.860069,76.006927 63.681450,76.015930 63.029068,76.140030 
	C62.298725,76.443001 62.115353,76.686119 62.005177,76.984482 
	C61.539600,76.980019 61.074020,76.975563 60.259071,76.941086 
	C61.038708,76.287048 62.167717,75.663017 63.671219,75.055107 
z"/>
<path fill="#14273D" opacity="1.000000" stroke="none" 
	d="
M62.210728,76.879288 
	C62.115353,76.686119 62.298725,76.443001 62.761074,76.152222 
	C62.858952,76.348373 62.675426,76.589958 62.210728,76.879288 
z"/>
<path fill="#1D92BA" opacity="1.000000" stroke="none" 
	d="
M461.801544,12.131607 
	C470.703064,12.083599 479.383881,12.151341 488.521301,12.116275 
	C499.682007,12.160950 510.386108,12.308434 521.539429,12.595733 
	C521.982178,13.022152 521.981445,13.308771 521.979614,13.811396 
	C494.309570,14.024336 466.646484,14.021286 438.521301,14.019648 
	C437.787537,13.707038 437.515869,13.393019 436.969971,12.925161 
	C443.459259,12.618384 450.222717,12.465446 457.675720,12.513566 
	C459.275299,12.596703 460.185333,12.478780 461.095398,12.360855 
	C461.095398,12.360853 461.580811,12.247358 461.801544,12.131607 
z"/>
<path fill="#24A9CF" opacity="1.000000" stroke="none" 
	d="
M520.561218,32.037880 
	C519.453247,32.367134 517.875000,32.935814 516.295044,32.940769 
	C499.501282,32.993450 482.707184,32.956608 465.444550,32.902737 
	C466.564117,32.571541 468.151520,32.035473 469.740662,32.030396 
	C486.523682,31.976820 503.306946,32.007874 520.561218,32.037880 
z"/>
<path fill="#24A9CF" opacity="1.000000" stroke="none" 
	d="
M461.922485,32.726112 
	C461.862366,32.881996 461.686401,32.906433 461.243927,32.932198 
	C461.253815,32.820568 461.530212,32.707615 461.922485,32.726112 
z"/>
<path fill="#24ADE3" opacity="1.000000" stroke="none" 
	d="
M459.465637,70.521469 
	C459.442047,70.478043 459.489197,70.564903 459.465637,70.521469 
z"/>
<path fill="#1AA1CD" opacity="1.000000" stroke="none" 
	d="
M437.840668,139.843857 
	C437.613342,139.926941 437.388123,139.709213 437.169128,139.188736 
	C437.391754,139.112503 437.614227,139.331512 437.840668,139.843857 
z"/>
<path fill="#1AA1CD" opacity="1.000000" stroke="none" 
	d="
M437.348450,14.924010 
	C437.186279,14.718810 437.329193,14.457361 437.809509,14.174566 
	C437.915833,14.363480 437.751404,14.601660 437.348450,14.924010 
z"/>
<path fill="#14273D" opacity="1.000000" stroke="none" 
	d="
M400.479431,52.006523 
	C406.811005,51.813725 413.608826,51.618919 420.697876,51.723953 
	C414.307953,52.017372 407.626831,52.010944 400.479431,52.006523 
z"/>
<path fill="#14273D" opacity="1.000000" stroke="none" 
	d="
M330.093750,53.630486 
	C328.128326,51.198364 330.130310,51.042797 332.120728,51.022041 
	C336.430634,50.977085 340.741302,51.005890 345.517456,51.009640 
	C342.506989,51.343456 339.020660,51.593395 335.558472,52.033154 
	C333.749939,52.262871 331.983795,52.826462 330.093750,53.630486 
z"/>
<path fill="#14273D" opacity="1.000000" stroke="none" 
	d="
M347.253845,51.278862 
	C348.178345,51.168362 349.340240,51.316536 350.732666,51.729889 
	C349.805847,51.842556 348.648529,51.690048 347.253845,51.278862 
z"/>
<path fill="#091222" opacity="1.000000" stroke="none" 
	d="
M302.920837,91.853622 
	C303.010986,91.996399 302.549622,91.989883 302.320129,91.986633 
	C302.090668,91.983383 302.394562,91.618431 302.394562,91.618431 
	C302.394562,91.618431 302.830719,91.710838 302.920837,91.853622 
z"/>
<path fill="#0E2239" opacity="1.000000" stroke="none" 
	d="
M138.599289,139.056122 
	C138.512634,139.943695 138.021225,141.717865 137.576309,141.706284 
	C131.120300,141.538177 124.670540,141.130753 118.370125,140.388245 
	C118.520966,139.995911 119.002068,139.993179 119.002068,139.993179 
	C125.483292,141.368637 131.941986,142.252747 138.599289,139.056122 
z"/>
<path fill="#0D243E" opacity="1.000000" stroke="none" 
	d="
M118.290329,66.697929 
	C118.012665,63.963829 118.007698,60.938114 118.008774,57.459213 
	C118.197548,60.139454 118.380280,63.272884 118.290329,66.697929 
z"/>
<path fill="#0D243E" opacity="1.000000" stroke="none" 
	d="
M118.282669,96.713074 
	C118.011581,94.625565 118.008537,92.260414 118.010773,89.452538 
	C118.194267,91.485023 118.372482,93.960220 118.282669,96.713074 
z"/>
<path fill="#0D243E" opacity="1.000000" stroke="none" 
	d="
M118.286385,80.710327 
	C118.015488,78.624268 118.011536,76.260269 118.013664,73.453796 
	C118.197609,75.485016 118.375465,77.958702 118.286385,80.710327 
z"/>
<path fill="#0D243E" opacity="1.000000" stroke="none" 
	d="
M118.276604,113.733765 
	C118.014473,112.281242 118.011368,110.573158 118.014893,108.438644 
	C118.192886,109.834206 118.364258,111.656197 118.276604,113.733765 
z"/>
<path fill="#0D243E" opacity="1.000000" stroke="none" 
	d="
M118.266571,105.769485 
	C118.016182,104.927696 118.011215,103.866913 118.012604,102.408577 
	C118.183311,103.190849 118.347656,104.370674 118.266571,105.769485 
z"/>
<path fill="#0E2239" opacity="1.000000" stroke="none" 
	d="
M158.845245,68.762009 
	C158.556747,68.981934 158.112228,68.993721 157.334167,69.002457 
	C157.563477,68.850891 158.126358,68.702385 158.845245,68.762009 
z"/>
<path fill="#0D243E" opacity="1.000000" stroke="none" 
	d="
M118.889641,139.783112 
	C119.002068,139.993179 118.520966,139.995911 118.280869,139.994995 
	C118.040779,139.994095 118.016350,139.499405 118.021332,139.251892 
	C118.331848,139.120987 118.582153,139.310562 118.889641,139.783112 
z"/>
<path fill="#0D243E" opacity="1.000000" stroke="none" 
	d="
M118.161270,54.907837 
	C118.004501,54.834511 118.001572,54.666595 118.001816,54.246742 
	C118.108360,54.267616 118.211739,54.540432 118.161270,54.907837 
z"/>
<path fill="#6EBFD4" opacity="1.000000" stroke="none" 
	d="
M460.709473,12.216237 
	C460.185333,12.478780 459.275299,12.596703 458.137085,12.534803 
	C458.713806,12.260527 459.518677,12.166072 460.709473,12.216237 
z"/>
</svg>