<svg version="1.1" id="Layer_1" xmlns="http://www.w3.org/2000/svg" xmlns:xlink="http://www.w3.org/1999/xlink" x="0px" y="0px"
	 width="100%" viewBox="0 0 578 186" enable-background="new 0 0 578 186" xml:space="preserve">
<path fill="#FDFEFE" opacity="1.000000" stroke="none" 
	d="
M446.000000,187.000000 
	C297.333344,187.000000 149.166672,187.000000 1.000000,187.000000 
	C1.000000,125.000000 1.000000,63.000000 1.000000,1.000000 
	C193.666672,1.000000 386.333344,1.000000 579.000000,1.000000 
	C579.000000,63.000000 579.000000,125.000000 579.000000,187.000000 
	C534.833313,187.000000 490.666656,187.000000 446.000000,187.000000 
M568.924500,12.454781 
	C568.617798,12.285316 568.311035,12.115852 568.000488,12.002578 
	C568.000488,12.002578 568.052795,11.981705 567.712097,11.354568 
	C562.718933,8.023228 557.505005,7.347003 551.479187,10.074249 
	C551.290283,10.358725 551.101379,10.643200 550.994751,10.933498 
	C550.994751,10.933498 550.952637,10.862582 550.368042,10.917777 
	C549.953003,11.305802 549.537903,11.693827 549.041748,12.014867 
	C549.041748,12.014867 549.076904,12.114010 548.512268,12.279417 
	C548.222778,12.766507 547.933228,13.253596 547.760681,13.834549 
	C547.760681,13.834549 547.717773,13.690894 547.199890,13.879032 
	C547.055542,14.207419 546.911194,14.535807 546.872498,14.889566 
	C546.872498,14.889566 546.845947,14.784150 546.304199,15.001186 
	C546.177979,15.355700 546.051758,15.710213 545.752563,16.226212 
	C545.752563,16.226212 545.801025,16.457836 545.169373,16.993567 
	C543.439148,21.151247 542.803345,25.266972 545.599731,29.286188 
	C545.599731,29.286188 545.582214,29.337116 545.663208,29.967388 
	C546.315552,30.750805 546.967957,31.534224 547.968628,32.238182 
	C547.968628,32.238182 547.629639,32.351391 547.743164,32.896557 
	C548.164429,33.231972 548.585693,33.567390 549.372498,34.380859 
	C549.907593,34.615726 550.442688,34.850594 550.985901,35.012493 
	C550.985901,35.012493 550.920837,35.046539 551.374146,35.683636 
	C556.038879,37.523518 560.680908,38.535698 565.233154,35.331833 
	C565.233154,35.331833 565.264648,35.355980 565.940369,35.307087 
	C567.062622,34.271614 568.184875,33.236141 569.094177,32.086040 
	C569.094177,32.086040 569.275818,32.245731 569.889954,31.889278 
	C573.538940,26.803843 574.514099,21.525509 571.006714,15.986050 
	C571.006714,15.986050 571.075745,15.990335 571.019104,15.346046 
	C570.722900,15.047346 570.426697,14.748645 570.189880,14.215400 
	C570.189880,14.215400 570.001160,14.064036 569.932556,13.506686 
	C569.629150,13.311970 569.325806,13.117252 569.009460,12.990690 
	C569.009460,12.990690 569.077698,12.978030 568.924500,12.454781 
M378.862793,164.062317 
	C378.955017,163.723831 379.047272,163.385345 379.055603,163.050720 
	C379.055603,163.050720 379.082092,163.130447 379.680481,162.785583 
	C381.080017,159.853119 382.479553,156.920670 384.075043,153.612595 
	C384.075043,153.612595 384.063080,153.189087 384.632904,152.807861 
	C384.879456,151.931259 385.126038,151.054657 385.229004,150.140472 
	C385.229004,150.140472 385.272369,150.282410 385.835144,149.854553 
	C385.959076,148.922852 386.083008,147.991165 386.090942,147.052216 
	C386.090942,147.052216 386.115356,147.165894 386.673157,146.911621 
	C386.938538,145.944656 387.203888,144.977676 388.028992,143.409851 
	C390.418579,136.636002 392.808197,129.862167 395.826874,122.760796 
	C398.202545,116.169868 400.578217,109.578941 403.117767,102.639954 
	C403.117767,102.639954 403.088318,102.256378 403.735504,101.907364 
	C404.852600,98.603874 405.969696,95.300385 407.514740,91.372711 
	C408.709412,88.002586 409.904114,84.632469 411.751953,80.915070 
	C414.626282,73.382347 417.500610,65.849617 420.172974,57.957783 
	C420.172974,57.957783 420.356781,58.323986 420.846588,57.919186 
	C420.944702,57.294411 421.042786,56.669636 421.055969,56.053520 
	C421.055969,56.053520 421.087341,56.132877 421.660614,55.717621 
	C422.153809,54.161995 422.646973,52.606369 423.724518,50.737244 
	C423.139496,50.281979 422.554474,49.826714 421.225983,49.249935 
	C420.483398,49.327972 419.740784,49.406010 418.085571,49.266766 
	C412.067902,49.349796 406.050262,49.432831 399.473846,49.363930 
	C399.200134,49.864292 398.926422,50.364658 398.085419,51.331638 
	C395.479889,59.232525 392.874390,67.133408 389.986176,75.612732 
	C389.919220,76.036552 389.852264,76.460373 389.884674,76.908073 
	C389.884674,76.908073 389.863403,76.808151 389.357330,77.009483 
	C389.279114,77.334419 389.200897,77.659348 388.950531,78.609619 
	C388.862732,79.032928 388.774933,79.456238 388.105469,80.314659 
	C384.370300,91.189339 380.635132,102.064018 376.227448,112.712791 
	C375.478729,111.151939 374.649048,109.624107 373.996277,108.024109 
	C371.959290,103.031113 369.989197,98.010818 368.117554,92.257263 
	C367.119781,90.109566 366.122009,87.961868 365.103851,85.942741 
	C365.103851,85.942741 365.233185,85.927849 365.117798,85.220375 
	C364.759338,84.423576 364.400909,83.626785 364.027008,82.407196 
	C364.027008,82.407196 363.875214,82.012306 363.952240,81.411949 
	C363.664368,81.147156 363.376526,80.882362 363.217010,80.312347 
	C363.217010,80.312347 363.026764,80.041336 363.144440,79.302246 
	C362.634094,78.207329 362.123718,77.112411 361.400360,75.323990 
	C358.632629,68.136215 355.864899,60.948444 353.075043,52.978939 
	C352.629364,49.830860 350.845062,48.940140 347.716980,49.065624 
	C340.814056,49.342533 333.894653,49.209690 326.475647,49.096066 
	C326.372925,49.392475 326.270172,49.688885 326.124542,50.684811 
	C327.053680,52.501717 327.982819,54.318626 328.944794,56.056351 
	C328.944794,56.056351 328.859100,56.057613 328.921051,56.711826 
	C329.382294,57.908707 329.843536,59.105587 330.353241,60.505432 
	C330.353241,60.505432 330.463226,60.682735 330.768890,61.316212 
	C331.954956,64.321823 333.141022,67.327431 334.387360,70.496048 
	C334.387360,70.496048 334.462952,70.652534 334.757263,71.310722 
	C342.966187,91.854889 351.220276,112.381233 359.344208,132.958954 
	C360.887299,136.867523 361.914978,140.979584 362.918640,145.638443 
	C362.314880,147.097610 361.711090,148.556793 360.895538,150.337570 
	C360.895538,150.337570 360.899628,150.722626 360.292572,151.045044 
	C358.509094,153.315659 356.725616,155.586273 354.424042,157.963486 
	C354.151978,158.166687 353.879883,158.369904 353.605835,158.607452 
	C353.605835,158.607452 353.573486,158.590378 352.801208,158.844116 
	C347.953461,159.442535 343.105713,160.040955 338.143799,160.653473 
	C338.143799,167.145279 338.143799,174.032059 338.143799,180.820831 
	C347.758881,182.451584 356.913544,182.687531 365.307434,177.288788 
	C365.307434,177.288788 365.425659,177.387863 366.000305,177.241013 
	C366.418335,176.861679 366.836365,176.482346 367.865326,176.004333 
	C368.632446,175.351913 369.399536,174.699478 370.616455,173.965973 
	C370.919464,173.809128 371.071014,173.560104 371.661011,172.967072 
	C372.494843,172.014343 373.328674,171.061615 374.061462,170.059937 
	C374.061462,170.059937 374.110168,170.161072 374.707581,169.898834 
	C375.542114,168.648087 376.376648,167.397339 377.099365,166.088882 
	C377.099365,166.088882 377.154480,166.201950 377.696136,165.959045 
	C377.960083,165.430405 378.224030,164.901764 378.229187,164.013641 
	C378.229187,164.013641 378.452759,164.396011 378.862793,164.062317 
M459.689087,143.115646 
	C459.883209,142.784363 460.077301,142.453079 460.337799,141.680588 
	C460.337799,141.680588 460.171356,141.266632 460.511200,140.516418 
	C460.342072,137.019974 460.172943,133.523529 460.070648,129.493881 
	C460.020477,129.321930 459.970306,129.149963 460.081635,128.055420 
	C460.118439,115.767502 460.155212,103.479576 460.629944,91.124924 
	C460.629944,91.124924 461.029541,90.933701 461.952698,91.071518 
	C481.491089,91.071518 501.029480,91.071518 520.697876,91.071518 
	C520.697876,83.371666 520.697876,76.324379 520.697876,68.768036 
	C518.765076,68.768036 517.145813,68.768105 515.526611,68.768021 
	C498.750641,68.767174 481.974579,68.790268 465.198822,68.729546 
	C463.460205,68.723251 461.723358,68.218559 460.090668,67.025146 
	C460.094147,58.213009 460.037415,49.400146 460.143280,40.589245 
	C460.169983,38.366634 460.716492,36.150269 461.948792,34.075268 
	C473.529572,34.084980 485.110321,34.099335 496.691101,34.102863 
	C505.128540,34.105431 513.566406,34.132095 522.002930,34.042000 
	C523.114502,34.030132 525.905823,34.974186 524.082947,31.056417 
	C524.109253,26.771635 524.135620,22.486853 524.841980,17.738609 
	C524.583130,15.591537 527.481873,11.665787 521.000427,12.309624 
	C493.361023,12.353856 465.721649,12.398088 437.257812,12.207225 
	C436.780914,13.780694 435.890411,15.353418 435.887573,16.927746 
	C435.814484,57.496334 435.821838,98.065109 435.885651,138.633743 
	C435.887970,140.111206 436.602356,141.587555 437.457031,143.149353 
	C437.457031,143.149353 437.928558,143.061249 438.626160,143.383194 
	C441.464508,143.290039 444.302887,143.196884 447.710114,143.220581 
	C448.093384,143.181824 448.476654,143.143051 449.505157,143.411514 
	C451.384247,143.308258 453.263367,143.205002 455.716827,143.218430 
	C456.103363,143.177933 456.489929,143.137436 457.280334,143.347107 
	C457.877991,143.257706 458.475647,143.168304 458.992584,143.018555 
	C458.992584,143.018555 459.068268,143.089615 459.689087,143.115646 
M209.044891,11.949157 
	C209.044891,11.949157 209.125458,11.921036 208.911514,11.425141 
	C208.598221,11.287031 208.284943,11.148921 207.641098,10.550593 
	C206.975937,10.203567 206.310791,9.856539 205.483597,9.387294 
	C205.483597,9.387294 205.290970,9.323405 204.617798,8.995378 
	C195.119156,6.193409 187.734772,9.226094 184.787323,17.751606 
	C184.572800,20.506393 184.358276,23.261181 184.038712,26.735382 
	C188.703934,37.832684 200.347961,40.782990 209.055191,33.049618 
	C209.055191,33.049618 209.096802,33.147736 209.748077,32.867214 
	C215.184814,26.184114 215.296204,19.388876 210.048019,12.955778 
	C210.048019,12.955778 210.132202,12.945201 209.966522,12.421019 
	C209.662811,12.235500 209.359100,12.049982 209.044891,11.949157 
M139.901001,66.861351 
	C139.901001,66.861351 139.844803,66.745506 139.115295,66.346542 
	C139.115295,60.980335 139.115295,55.614124 139.115295,50.254864 
	C131.036331,50.254864 123.550110,50.254864 115.937920,50.254864 
	C116.020775,52.026119 116.089851,53.502949 116.005135,55.908440 
	C116.005135,84.947662 116.005135,113.986885 116.005135,143.110764 
	C124.609245,143.110764 132.696426,143.110764 140.726685,143.110764 
	C140.726685,135.412094 140.684021,127.940178 140.735992,120.468918 
	C140.829956,106.962975 138.174042,93.285683 143.871063,79.898163 
	C145.918503,77.872581 147.965942,75.847008 150.629059,73.727966 
	C151.872894,73.033455 153.116714,72.338951 154.471252,71.586853 
	C154.471252,71.586853 154.596008,71.583549 155.337708,71.280807 
	C160.940475,70.766388 166.543243,70.251961 172.144867,69.737648 
	C172.144867,62.908886 172.144867,55.626080 172.144867,48.239136 
	C164.559433,47.297836 157.196976,46.663223 150.900970,51.902596 
	C150.900970,51.902596 150.868195,51.800602 150.227524,51.985928 
	C148.555786,53.657696 146.884064,55.329464 144.770691,57.573406 
	C143.504486,59.713856 142.238281,61.854305 140.385437,64.309586 
	C140.181168,65.163544 139.976898,66.017494 139.901001,66.861351 
M34.039062,98.042313 
	C34.039062,98.042313 34.063519,98.120682 34.985760,97.997009 
	C42.568092,97.988907 50.167980,98.298195 57.727627,97.880028 
	C64.751587,97.491486 71.984787,97.370384 78.805626,92.816681 
	C85.669540,90.187958 90.135452,84.860069 94.840179,78.810211 
	C103.934525,68.690262 104.586555,45.841949 96.099716,32.901665 
	C96.099716,32.901665 96.210136,32.854816 96.071831,32.199043 
	C95.061340,31.094223 94.050850,29.989403 92.810020,28.266592 
	C90.575676,26.164354 88.341331,24.062115 85.936554,21.277885 
	C84.282181,20.010593 82.808548,18.160168 80.940811,17.581291 
	C74.361618,15.542170 67.647186,13.939418 60.059586,12.020059 
	C43.136486,12.020059 26.213383,12.020059 9.165586,12.020059 
	C9.165586,55.959793 9.165586,99.476868 9.165586,143.027618 
	C17.501465,143.027618 25.579304,143.027618 33.852856,143.027618 
	C33.852856,128.241119 33.852856,113.627556 34.023270,98.542336 
	C34.055771,98.378349 34.088268,98.214371 34.039062,98.042313 
M258.107574,143.227310 
	C266.311066,143.410477 274.514404,143.661926 282.718262,143.681488 
	C283.637421,143.683685 285.045471,142.560715 285.404144,141.639328 
	C288.418976,133.894348 291.241821,126.074623 294.703430,117.820099 
	C297.068787,111.213020 299.434174,104.605942 302.261688,97.374229 
	C306.558411,85.707153 310.855164,74.040077 315.752563,62.048546 
	C315.901703,61.390560 316.050842,60.732574 316.098572,60.059433 
	C316.098572,60.059433 316.117950,60.160133 316.768921,59.844872 
	C318.071960,56.432224 319.375000,53.019581 320.789459,49.315063 
	C312.776794,49.315063 305.459778,49.206264 298.151978,49.417641 
	C296.870972,49.454693 294.854858,50.567760 294.485168,51.636147 
	C289.154205,67.041039 284.047028,82.523346 278.335754,98.478531 
	C276.345337,104.611435 274.354919,110.744339 271.754364,116.645103 
	C270.448608,113.422722 269.142822,110.200340 267.909302,106.316986 
	C267.282501,105.527008 266.655731,104.737022 265.990631,103.463226 
	C265.990631,103.463226 265.924438,102.982437 266.280121,102.493851 
	C265.582550,100.583961 264.884979,98.674080 264.160400,96.884964 
	C264.160400,96.884964 264.279724,96.852196 264.217926,96.061249 
	C259.109711,81.149742 254.044952,66.222893 248.796143,51.361046 
	C248.443817,50.363430 246.714096,49.247574 245.600220,49.220875 
	C237.851379,49.035118 230.095993,49.122784 221.692505,49.122784 
	C225.204193,57.877712 228.512131,66.124687 231.885712,75.118210 
	C234.528809,81.778275 237.171890,88.438332 239.877548,95.862831 
	C241.611893,99.910110 243.346237,103.957390 244.869629,108.770653 
	C249.185913,120.010483 253.502182,131.250320 258.107574,143.227310 
M570.401917,49.392605 
	C562.548157,49.392605 554.694397,49.392605 546.512939,49.392605 
	C546.512939,80.966454 546.512939,111.883278 546.512939,143.100281 
	C554.514343,143.100281 562.281982,143.100281 570.632690,142.976456 
	C570.591553,142.469131 570.550415,141.961807 570.635010,141.127792 
	C570.647766,140.866806 570.542175,140.669113 570.907288,139.848862 
	C570.888184,135.910309 570.869080,131.971756 570.983154,127.100235 
	C570.940674,119.724007 570.898132,112.347771 571.047913,104.056335 
	C570.949463,86.050659 570.851013,68.044975 570.401917,49.392605 
M185.925888,56.568142 
	C185.925888,85.451874 185.925888,114.335602 185.925888,143.242081 
	C194.486908,143.242081 202.392334,143.242081 210.317520,143.242081 
	C210.317520,111.727165 210.317520,80.514679 210.317520,49.385635 
	C202.051208,49.385635 194.130859,49.385635 185.925018,49.385635 
	C185.925018,51.637177 185.925018,53.612289 185.925888,56.568142 
z"/>
<path fill="#02213F" opacity="1.000000" stroke="none" 
	d="
M94.229553,79.113678 
	C90.135452,84.860069 85.669540,90.187958 78.046555,92.911865 
	C74.242386,93.669342 71.220291,94.746895 68.147926,94.917152 
	C58.370819,95.458977 48.570396,95.574959 38.790977,96.085365 
	C37.184128,96.169235 35.637810,97.412987 34.063519,98.120682 
	C34.063519,98.120682 34.039062,98.042313 33.837204,98.129913 
	C33.424667,98.478279 33.213997,98.739029 32.999973,99.468445 
	C32.992199,112.422768 32.899181,124.909454 33.042805,137.393402 
	C33.080875,140.702499 32.324303,142.278839 28.640509,142.066452 
	C23.828764,141.789017 18.980846,141.831329 14.163782,142.059265 
	C10.812124,142.217865 9.940062,140.897781 9.947034,137.708527 
	C10.034742,97.588013 10.052334,57.467133 9.939247,17.346762 
	C9.928873,13.666081 11.333144,12.896918 14.632641,12.950302 
	C24.618593,13.111871 34.610352,12.905736 44.596729,13.053555 
	C50.051167,13.134291 55.499306,13.640874 61.384201,13.973024 
	C65.195679,14.653451 68.698517,14.952933 71.921417,16.064259 
	C76.753098,17.730324 81.388252,19.966278 86.106987,21.959877 
	C88.341331,24.062115 90.575676,26.164354 92.918701,28.957241 
	C94.088310,30.716866 95.149223,31.785841 96.210136,32.854816 
	C96.210136,32.854816 96.099716,32.901665 96.084717,33.257927 
	C97.215881,39.073059 98.587349,44.496300 99.457489,49.998814 
	C100.907791,59.170212 100.450516,68.064774 94.556709,75.934563 
	C94.009079,76.665817 94.318222,78.038712 94.229553,79.113678 
M67.690331,36.606968 
	C67.333496,36.510906 66.976654,36.414845 66.775848,36.279713 
	C66.775848,36.279713 66.707253,36.425201 66.649727,35.653210 
	C65.520325,34.787357 64.432030,33.235199 63.254990,33.164703 
	C54.186783,32.621555 45.102139,32.338776 36.019627,32.079060 
	C35.392941,32.061142 34.742340,32.879578 34.064907,33.079803 
	C34.064907,33.079803 34.297184,33.072803 33.557655,33.506344 
	C33.372334,34.125397 33.027161,34.743958 33.025249,35.363579 
	C32.985531,48.227909 32.957535,61.092506 33.029636,73.956482 
	C33.035221,74.952263 33.797924,75.943802 34.638409,76.924393 
	C34.638409,76.924393 35.027290,77.107605 35.638809,77.664131 
	C42.032116,77.766380 48.488300,78.445091 54.795403,77.757095 
	C58.647297,77.336937 62.269951,74.815208 66.474823,72.905724 
	C66.944008,72.594391 67.413193,72.283051 68.639427,71.986588 
	C70.099976,71.295357 71.804314,70.884598 72.978531,69.863960 
	C77.851639,65.628197 80.027077,51.893970 76.702965,46.227757 
	C75.380096,43.972828 73.538254,42.022358 71.892334,39.224979 
	C70.560997,38.501404 69.229660,37.777824 67.971962,37.028687 
	C67.971962,37.028687 67.969200,37.106586 67.690331,36.606968 
z"/>
<path fill="#09AFE4" opacity="1.000000" stroke="none" 
	d="
M461.029541,90.933701 
	C461.029541,90.933701 460.629944,91.124924 460.049805,91.351173 
	C459.318390,104.050728 459.167175,116.524025 459.000244,129.460236 
	C458.954926,133.916122 458.925293,137.909088 458.434296,141.927277 
	C451.011780,141.903091 444.050598,141.853699 437.068359,141.348404 
	C437.038483,137.228271 437.017761,133.564026 437.022644,129.899796 
	C437.073334,91.925713 437.128113,53.951633 437.587036,15.972908 
	C440.776855,15.645409 443.560547,15.051547 446.346130,15.042428 
	C469.320526,14.967217 492.295410,15.022717 515.269897,14.959929 
	C517.173584,14.954726 519.075623,14.371287 521.240356,14.049187 
	C521.676941,14.035189 521.851501,14.028515 522.287415,14.232508 
	C523.086487,15.696138 523.624207,16.949104 524.161987,18.202068 
	C524.135620,22.486853 524.109253,26.771635 523.693970,31.633499 
	C521.354309,32.462261 519.404724,32.924076 517.453003,32.933006 
	C498.638031,33.019073 479.822723,33.028931 460.610291,33.134621 
	C459.794006,34.865910 459.029388,36.519691 459.012695,38.180988 
	C458.912872,48.120106 458.985321,58.060955 458.999847,68.322327 
	C459.017578,69.071190 459.035461,69.498962 459.115692,70.107071 
	C459.447571,70.191895 459.717072,70.096375 460.368164,70.002823 
	C461.512604,70.023972 462.275482,70.043152 463.333771,70.348618 
	C465.439575,70.757217 467.249786,70.982353 469.060394,70.985809 
	C485.690491,71.017563 502.320648,71.010895 518.968018,71.482224 
	C518.993225,75.948959 518.712158,79.975853 519.082092,83.942032 
	C519.550110,88.961189 517.376648,90.140144 512.727478,90.070770 
	C497.230988,89.839569 481.728699,89.956322 466.229034,90.029312 
	C464.494507,90.037468 462.762634,90.618393 461.029541,90.933701 
z"/>
<path fill="#03213F" opacity="1.000000" stroke="none" 
	d="
M367.993164,93.001106 
	C369.989197,98.010818 371.959290,103.031113 373.996277,108.024109 
	C374.649048,109.624107 375.478729,111.151939 376.928894,112.794975 
	C378.197540,112.329788 379.056122,111.884262 379.288330,111.219826 
	C382.917572,100.834793 386.465912,90.421486 390.397369,79.934334 
	C391.113922,79.528091 391.671722,79.262505 391.787506,78.867386 
	C393.726501,72.251289 395.572571,65.607925 397.519104,58.994114 
	C398.910645,54.266033 401.513550,51.341560 407.093597,51.930462 
	C411.018707,52.344704 415.022705,52.011330 419.305176,52.172138 
	C420.108368,53.599289 420.597870,54.866081 421.087341,56.132874 
	C421.087341,56.132877 421.055969,56.053520 420.804840,56.222485 
	C420.488068,57.035625 420.422424,57.679806 420.356781,58.323986 
	C420.356781,58.323986 420.172974,57.957783 419.890320,58.083847 
	C418.739014,59.618641 417.675232,60.945549 417.042908,62.453392 
	C415.785004,65.453011 414.649811,68.516258 413.677887,71.620216 
	C412.684601,74.792435 411.947845,78.044968 411.098755,81.262344 
	C409.904114,84.632469 408.709412,88.002586 406.932129,91.749077 
	C405.262421,95.502419 404.175354,98.879395 403.088318,102.256378 
	C403.088318,102.256378 403.117767,102.639954 402.684570,102.875656 
	C398.668823,109.335564 395.255798,115.619621 395.197815,123.088318 
	C392.808197,129.862167 390.418579,136.636002 387.444031,143.814941 
	C386.611145,145.201981 386.363251,146.183945 386.115356,147.165894 
	C386.115356,147.165894 386.090942,147.052216 385.824615,147.238388 
	C385.462982,148.377182 385.367676,149.329788 385.272369,150.282410 
	C385.272369,150.282410 385.229004,150.140472 384.954102,150.281097 
	C384.473846,151.344177 384.268463,152.266632 384.063080,153.189087 
	C384.063080,153.189087 384.075043,153.612595 383.637085,153.860092 
	C381.826782,157.115219 380.454437,160.122833 379.082092,163.130447 
	C379.082092,163.130447 379.055603,163.050720 378.845581,163.185791 
	C378.574615,163.679260 378.513672,164.037628 378.452759,164.396011 
	C378.452759,164.396011 378.229187,164.013641 378.018372,164.217896 
	C377.589874,165.015427 377.372192,165.608688 377.154480,166.201950 
	C377.154480,166.201950 377.099365,166.088882 376.775879,166.102020 
	C375.671631,167.463791 374.890900,168.812424 374.110168,170.161072 
	C374.110168,170.161072 374.061462,170.059937 373.717560,170.055466 
	C372.606140,171.106964 371.838623,172.162949 371.071106,173.218918 
	C371.071014,173.560104 370.919464,173.809128 370.038086,173.988647 
	C367.699890,174.064713 365.152588,172.351501 365.069305,176.358368 
	C365.237030,176.939697 365.331329,177.163788 365.425659,177.387863 
	C365.425659,177.387863 365.307434,177.288788 364.914185,177.228760 
	C359.412842,178.041214 354.298920,178.880875 349.198395,179.795441 
	C344.113251,180.707260 340.312866,178.500854 339.973083,174.458862 
	C339.808502,172.501022 339.374847,170.567230 339.115753,168.615570 
	C338.577606,164.561310 340.396027,162.815872 344.462189,162.362961 
	C347.690033,162.003418 350.825806,160.816895 354.366882,159.991608 
	C358.367554,157.950226 361.413788,155.521866 360.899628,150.722626 
	C360.899628,150.722626 360.895538,150.337570 361.380188,150.167236 
	C365.283478,149.821564 364.990021,147.319031 364.999084,144.598633 
	C364.161102,141.760345 363.389832,139.299911 362.466003,136.898148 
	C355.027740,117.560280 347.652588,98.196983 340.007294,78.941048 
	C338.808044,75.920586 336.342804,73.402779 334.462952,70.652542 
	C334.462952,70.652534 334.387360,70.496048 334.554016,70.042114 
	C333.301514,66.619698 331.882355,63.651215 330.463226,60.682732 
	C330.463226,60.682735 330.353241,60.505432 330.530212,60.066711 
	C330.091187,58.437862 329.475128,57.247738 328.859100,56.057613 
	C328.859100,56.057613 328.944794,56.056351 328.959991,55.665779 
	C330.037598,54.188450 330.992981,52.313908 332.181061,52.152542 
	C337.084137,51.486580 342.057831,51.340023 347.239319,51.270470 
	C348.645721,51.695526 349.818298,51.852688 351.112427,52.293831 
	C351.817352,53.396862 352.400726,54.215908 352.985962,55.428291 
	C354.307617,60.063114 355.433563,64.378708 357.016693,68.519539 
	C358.039886,71.195786 359.732330,73.616150 361.076233,76.513504 
	C361.693939,77.930992 362.360352,78.986168 363.026764,80.041336 
	C363.026764,80.041336 363.217010,80.312347 363.205627,80.739304 
	C363.421234,81.448273 363.648224,81.730286 363.875214,82.012299 
	C363.875214,82.012306 364.027008,82.407196 364.018799,82.985382 
	C364.418091,84.351654 364.825653,85.139755 365.233185,85.927849 
	C365.233185,85.927849 365.103851,85.942741 365.071411,86.271118 
	C366.023743,88.733368 367.008453,90.867233 367.993164,93.001106 
z"/>
<path fill="#03223F" opacity="1.000000" stroke="none" 
	d="
M265.924438,102.982437 
	C265.924438,102.982437 265.990631,103.463226 266.008606,104.050438 
	C266.630066,105.417755 267.233551,106.197861 267.837036,106.977966 
	C269.142822,110.200340 270.448608,113.422722 272.395660,116.691658 
	C275.354706,110.471886 277.672455,104.205559 280.144287,97.612823 
	C282.181366,91.904228 284.077423,86.526550 285.944366,81.138786 
	C288.655487,73.314812 291.246002,65.446800 294.112518,57.680454 
	C294.858093,55.660419 296.312378,52.459209 297.654999,52.346424 
	C304.258087,51.791733 310.933197,52.094467 317.431213,52.094467 
	C316.896667,55.377525 316.507324,57.768829 316.117950,60.160133 
	C316.117950,60.160133 316.098572,60.059433 315.846619,60.237221 
	C315.447083,61.067673 315.299500,61.720333 315.151917,62.373001 
	C310.855164,74.040077 306.558411,85.707153 301.692932,97.760788 
	C298.419556,104.432198 295.714935,110.717041 292.963867,117.373260 
	C290.476990,124.073967 288.319519,130.536926 285.430115,136.654190 
	C284.519104,138.582901 281.721405,140.674026 279.659180,140.814728 
	C272.474213,141.304932 265.233124,140.973206 258.003174,140.553680 
	C255.713135,133.791229 253.385239,127.445641 251.176758,121.058754 
	C250.272949,118.444939 249.886520,115.627487 248.779007,113.116951 
	C247.948868,111.235214 246.341766,109.696251 245.080582,108.004677 
	C243.346237,103.957390 241.611893,99.910110 240.142212,95.257248 
	C239.929306,92.562325 239.728363,90.358574 238.920700,88.405739 
	C236.765472,83.194633 234.349426,78.091393 232.021973,72.547363 
	C229.889038,65.625259 227.771179,59.101070 225.444641,51.934105 
	C230.593155,51.934105 235.612900,52.462059 240.465546,51.787663 
	C245.455292,51.094212 247.809799,52.883289 249.283875,57.380295 
	C252.380478,66.827240 255.639023,76.225639 259.067780,85.557007 
	C260.493317,89.436630 262.524139,93.093849 264.279724,96.852196 
	C264.279724,96.852196 264.160400,96.884964 264.114136,97.244934 
	C264.686707,99.397423 265.305573,101.189926 265.924438,102.982437 
z"/>
<path fill="#03213F" opacity="1.000000" stroke="none" 
	d="
M150.013382,73.821426 
	C147.965942,75.847008 145.918503,77.872581 143.166168,79.999588 
	C141.450165,82.118141 139.621109,84.110977 139.560364,86.156349 
	C139.158875,99.670944 139.197998,113.197830 138.976318,126.718788 
	C138.717117,142.528366 141.955490,140.929123 124.722794,140.993134 
	C118.879219,141.014847 118.018517,140.148636 118.014725,134.387680 
	C117.999481,111.250893 118.013947,88.114098 118.298843,64.712860 
	C118.393547,61.973145 118.206818,59.497883 118.015999,56.683479 
	C118.011993,55.892136 118.012085,55.439926 118.178108,54.901794 
	C118.231850,54.545521 118.119652,54.275166 118.001160,54.003368 
	C117.994865,54.001926 117.982903,54.008755 117.989548,53.673050 
	C118.001236,52.889801 118.006279,52.442253 118.478348,51.997276 
	C124.398109,51.999844 129.850845,51.999844 135.091324,51.999844 
	C135.859192,54.012367 136.427490,55.501881 136.997864,57.395367 
	C136.981384,58.876343 136.962860,59.953346 136.788254,61.113529 
	C136.737137,61.454899 136.842087,61.713085 136.957336,62.312874 
	C136.968094,63.110115 136.968506,63.565758 136.808777,64.105179 
	C136.755173,64.450668 136.861725,64.712387 136.981003,65.320312 
	C137.723633,66.553223 138.453522,67.439919 139.183426,68.326614 
	C139.403885,67.799583 139.624344,67.272545 139.844803,66.745506 
	C139.844803,66.745506 139.901001,66.861351 140.142380,66.798813 
	C140.579865,65.822433 140.775970,64.908592 140.972076,63.994755 
	C142.238281,61.854305 143.504486,59.713856 145.358063,57.274258 
	C148.802368,56.407108 151.428711,55.619766 150.868195,51.800602 
	C150.868195,51.800602 150.900970,51.902596 151.254181,51.925827 
	C157.415329,50.700100 163.223251,49.451141 169.172195,48.171856 
	C169.975327,51.603367 170.626022,53.639267 170.910812,55.725128 
	C172.404022,66.661118 170.739090,68.468117 159.611343,69.095116 
	C157.898285,69.191635 156.265778,70.718300 154.596008,71.583557 
	C154.596008,71.583549 154.471252,71.586853 154.040283,71.425163 
	C151.410522,70.710152 149.884766,71.102951 150.013382,73.821426 
z"/>
<path fill="#222C39" opacity="1.000000" stroke="none" 
	d="
M185.925446,56.077774 
	C185.925018,53.612289 185.925018,51.637177 185.925018,49.385635 
	C194.130859,49.385635 202.051208,49.385635 210.317520,49.385635 
	C210.317520,80.514679 210.317520,111.727165 210.317520,143.242081 
	C202.392334,143.242081 194.486908,143.242081 185.925888,143.242081 
	C185.925888,114.335602 185.925888,85.451874 185.925446,56.077774 
M187.974930,118.499840 
	C187.976425,123.992287 188.209686,129.497543 187.906815,134.973160 
	C187.659988,139.435104 188.991745,141.562729 193.774796,141.070328 
	C196.739197,140.765152 199.760757,141.025986 202.756577,141.013062 
	C208.524200,140.988174 209.099564,140.318954 208.833557,134.714615 
	C208.497299,127.630203 208.091415,120.541145 208.050934,113.452164 
	C207.942551,94.478867 207.945175,75.504074 208.075577,56.531055 
	C208.098938,53.130428 207.181442,51.686996 203.592697,51.925663 
	C199.615662,52.190159 195.606033,52.059338 191.613815,51.964790 
	C189.199371,51.907604 187.977097,52.601074 187.932281,55.320122 
	C187.776550,64.769371 187.184082,74.215736 187.200745,83.662407 
	C187.220627,94.942001 187.696579,106.220795 187.974930,118.499840 
z"/>
<path fill="#10ACE0" opacity="1.000000" stroke="none" 
	d="
M570.001160,14.064034 
	C570.001160,14.064036 570.189880,14.215400 570.188965,14.659502 
	C570.483887,15.399179 570.779846,15.694755 571.075745,15.990332 
	C571.075745,15.990335 571.006714,15.986050 570.991577,16.420795 
	C570.409546,21.985605 569.842651,27.115669 569.275818,32.245731 
	C569.275818,32.245731 569.094177,32.086040 568.847229,32.174057 
	C567.488403,33.293377 566.376526,34.324677 565.264648,35.355980 
	C565.264648,35.355980 565.233154,35.331833 564.793579,35.207741 
	C559.876343,35.071278 555.398560,35.058910 550.920837,35.046539 
	C550.920837,35.046539 550.985901,35.012493 550.889954,34.763580 
	C550.210632,33.990826 549.627258,33.466984 548.873718,32.717197 
	C548.345520,32.444633 547.987610,32.398014 547.629639,32.351391 
	C547.629639,32.351391 547.968628,32.238182 547.906860,31.919521 
	C547.090820,30.846283 546.336487,30.091703 545.582214,29.337120 
	C545.582214,29.337116 545.599731,29.286188 545.708252,28.850233 
	C545.811462,24.428797 545.806213,20.443317 545.801025,16.457836 
	C545.801025,16.457836 545.752563,16.226212 546.095276,16.018013 
	C546.573975,15.467931 546.709961,15.126047 546.845947,14.784157 
	C546.845947,14.784150 546.872498,14.889566 547.104858,14.807886 
	C547.464111,14.381105 547.590942,14.036006 547.717773,13.690901 
	C547.717773,13.690894 547.760681,13.834549 548.016846,13.765983 
	C548.540955,13.169613 548.808899,12.641809 549.076904,12.114008 
	C549.076904,12.114010 549.041748,12.014867 549.383118,12.018183 
	C550.133850,11.635196 550.543274,11.248891 550.952637,10.862585 
	C550.952637,10.862582 550.994751,10.933498 551.225403,10.972803 
	C551.638611,11.014177 551.821106,11.016247 552.419067,11.011261 
	C557.907288,11.330037 562.980042,11.655871 568.052795,11.981705 
	C568.052795,11.981705 568.000488,12.002578 568.093872,12.224703 
	C568.484070,12.623896 568.780884,12.800963 569.077698,12.978031 
	C569.077698,12.978030 569.009460,12.990690 569.091492,13.210926 
	C569.449402,13.642118 569.725281,13.853075 570.001160,14.064034 
z"/>
<path fill="#04223F" opacity="1.000000" stroke="none" 
	d="
M184.143753,26.015968 
	C184.358276,23.261181 184.572800,20.506393 185.304230,17.332115 
	C191.005066,12.769918 196.018768,8.216833 203.551254,10.133482 
	C204.031357,10.255646 204.706543,9.611211 205.290970,9.323404 
	C205.290970,9.323405 205.483597,9.387294 205.414246,9.780345 
	C205.896500,10.782088 206.448135,11.390780 207.354446,12.000577 
	C208.181244,11.974800 208.653351,11.947919 209.125458,11.921037 
	C209.125458,11.921036 209.044891,11.949157 209.145569,12.159782 
	C209.541565,12.562005 209.836884,12.753601 210.132202,12.945200 
	C210.132202,12.945201 210.048019,12.955778 210.041107,13.320601 
	C210.514053,18.105698 211.305527,22.523830 211.335876,26.947189 
	C211.350037,29.008820 209.889114,31.080572 209.096802,33.147736 
	C209.096802,33.147736 209.055191,33.049618 208.695404,33.046570 
	C207.554184,33.238075 206.749512,33.367683 205.995071,33.637688 
	C201.009460,35.421913 196.117508,36.673954 191.589569,32.448681 
	C189.193329,30.212612 186.631058,28.154448 184.143753,26.015968 
z"/>
<path fill="#0D182A" opacity="1.000000" stroke="none" 
	d="
M118.012169,54.987717 
	C118.012085,55.439926 118.011993,55.892136 118.010666,57.124397 
	C118.012085,60.262070 118.014755,62.619686 118.017418,64.977303 
	C118.013947,88.114098 117.999481,111.250893 118.014725,134.387680 
	C118.018517,140.148636 118.879219,141.014847 124.722794,140.993134 
	C141.955490,140.929123 138.717117,142.528366 138.976318,126.718788 
	C139.197998,113.197830 139.158875,99.670944 139.560364,86.156349 
	C139.621109,84.110977 141.450165,82.118141 142.829895,80.090355 
	C138.174042,93.285683 140.829956,106.962975 140.735992,120.468918 
	C140.684021,127.940178 140.726685,135.412094 140.726685,143.110764 
	C132.696426,143.110764 124.609245,143.110764 116.005135,143.110764 
	C116.005135,113.986885 116.005135,84.947662 116.314995,55.330078 
	C117.077538,54.504066 117.530220,54.256413 117.982903,54.008759 
	C117.982903,54.008755 117.994865,54.001926 117.999603,54.249069 
	C118.004341,54.496212 118.012169,54.987717 118.012169,54.987717 
z"/>
<path fill="#2FA1CA" opacity="1.000000" stroke="none" 
	d="
M570.855652,104.971542 
	C570.898132,112.347771 570.940674,119.724007 570.655518,127.880577 
	C570.324707,132.618851 570.321472,136.576797 570.318237,140.534729 
	C570.542175,140.669113 570.647766,140.866806 570.415100,141.691528 
	C570.146667,142.536926 570.098206,142.818604 570.049683,143.100281 
	C562.281982,143.100281 554.514343,143.100281 546.512939,143.100281 
	C546.512939,111.883278 546.512939,80.966454 546.512939,49.392605 
	C554.694397,49.392605 562.548157,49.392605 570.341553,50.047138 
	C570.196228,68.042465 570.100952,85.383232 570.062073,102.724121 
	C570.060425,103.472664 570.579285,104.222374 570.855652,104.971542 
M548.208862,140.787598 
	C555.118896,140.853027 562.028931,140.918457 568.977478,140.049301 
	C568.986633,115.579643 569.025024,91.109924 568.980347,66.640366 
	C568.971313,61.685806 570.535400,54.625130 567.974304,52.330849 
	C565.022888,49.687042 558.293213,51.349422 553.218445,50.959076 
	C549.354370,50.661869 547.932251,52.134342 547.951843,56.096935 
	C548.090576,84.061378 548.051636,112.026703 548.208862,140.787598 
z"/>
<path fill="#000514" opacity="1.000000" stroke="none" 
	d="
M60.950283,13.955413 
	C55.499306,13.640874 50.051167,13.134291 44.596729,13.053555 
	C34.610352,12.905736 24.618593,13.111871 14.632641,12.950302 
	C11.333144,12.896918 9.928873,13.666081 9.939247,17.346762 
	C10.052334,57.467133 10.034742,97.588013 9.947034,137.708527 
	C9.940062,140.897781 10.812124,142.217865 14.163782,142.059265 
	C18.980846,141.831329 23.828764,141.789017 28.640509,142.066452 
	C32.324303,142.278839 33.080875,140.702499 33.042805,137.393402 
	C32.899181,124.909454 32.992199,112.422768 33.212391,99.468842 
	C33.428158,99.000565 33.852856,99.013992 33.852856,99.013992 
	C33.852856,113.627556 33.852856,128.241119 33.852856,143.027618 
	C25.579304,143.027618 17.501465,143.027618 9.165586,143.027618 
	C9.165586,99.476868 9.165586,55.959793 9.165586,12.020059 
	C26.213383,12.020059 43.136486,12.020059 60.521740,12.393353 
	C60.972691,13.162901 60.961487,13.559157 60.950283,13.955413 
z"/>
<path fill="#0F192A" opacity="1.000000" stroke="none" 
	d="
M264.248840,96.456726 
	C262.524139,93.093849 260.493317,89.436630 259.067780,85.557007 
	C255.639023,76.225639 252.380478,66.827240 249.283875,57.380295 
	C247.809799,52.883289 245.455292,51.094212 240.465546,51.787663 
	C235.612900,52.462059 230.593155,51.934105 225.444641,51.934105 
	C227.771179,59.101070 229.889038,65.625259 231.971649,72.904861 
	C231.897614,73.897415 231.858856,74.134537 231.820084,74.371666 
	C228.512131,66.124687 225.204193,57.877712 221.692505,49.122784 
	C230.095993,49.122784 237.851379,49.035118 245.600220,49.220875 
	C246.714096,49.247574 248.443817,50.363430 248.796143,51.361046 
	C254.044952,66.222893 259.109711,81.149742 264.248840,96.456726 
z"/>
<path fill="#1B2332" opacity="1.000000" stroke="none" 
	d="
M316.443420,60.002502 
	C316.507324,57.768829 316.896667,55.377525 317.431213,52.094467 
	C310.933197,52.094467 304.258087,51.791733 297.654999,52.346424 
	C296.312378,52.459209 294.858093,55.660419 294.112518,57.680454 
	C291.246002,65.446800 288.655487,73.314812 285.944366,81.138786 
	C284.077423,86.526550 282.181366,91.904228 279.868408,97.627075 
	C279.254364,97.974190 279.070282,97.980644 278.886169,97.987091 
	C284.047028,82.523346 289.154205,67.041039 294.485168,51.636147 
	C294.854858,50.567760 296.870972,49.454693 298.151978,49.417641 
	C305.459778,49.206264 312.776794,49.315063 320.789459,49.315063 
	C319.375000,53.019581 318.071960,56.432224 316.443420,60.002502 
z"/>
<path fill="#1694C0" opacity="1.000000" stroke="none" 
	d="
M522.026062,14.021841 
	C521.851501,14.028515 521.676941,14.035189 520.774902,14.029200 
	C492.684570,14.018353 465.321686,14.020168 437.971741,13.757719 
	C438.017212,13.143075 438.049713,12.792696 438.082214,12.442318 
	C465.721649,12.398088 493.361023,12.353856 521.463135,12.664229 
	C521.959290,13.353170 521.992676,13.687505 522.026062,14.021841 
z"/>
<path fill="#2696C1" opacity="1.000000" stroke="none" 
	d="
M459.053345,69.926727 
	C459.035461,69.498962 459.017578,69.071190 459.246704,68.315514 
	C459.493683,67.987602 459.985687,67.945122 459.985687,67.945114 
	C461.723358,68.218559 463.460205,68.723251 465.198822,68.729546 
	C481.974579,68.790268 498.750641,68.767174 515.526611,68.768021 
	C517.145813,68.768105 518.765076,68.768036 520.697876,68.768036 
	C520.697876,76.324379 520.697876,83.371666 520.697876,91.071518 
	C501.029480,91.071518 481.491089,91.071518 461.491119,91.002609 
	C462.762634,90.618393 464.494507,90.037468 466.229034,90.029312 
	C481.728699,89.956322 497.230988,89.839569 512.727478,90.070770 
	C517.376648,90.140144 519.550110,88.961189 519.082092,83.942032 
	C518.712158,79.975853 518.993225,75.948959 518.685120,71.180054 
	C499.936157,70.294823 481.487274,70.178581 463.038361,70.062332 
	C462.275482,70.043152 461.512604,70.023972 460.134766,69.986504 
	C459.519775,69.968216 459.053345,69.926727 459.053345,69.926727 
z"/>
<path fill="#0E192A" opacity="1.000000" stroke="none" 
	d="
M334.610107,70.981628 
	C336.342804,73.402779 338.808044,75.920586 340.007294,78.941048 
	C347.652588,98.196983 355.027740,117.560280 362.466003,136.898148 
	C363.389832,139.299911 364.161102,141.760345 364.696716,144.597778 
	C363.987061,145.000565 363.583771,144.999161 363.180450,144.997757 
	C361.914978,140.979584 360.887299,136.867523 359.344208,132.958954 
	C351.220276,112.381233 342.966187,91.854889 334.610107,70.981628 
z"/>
<path fill="#48A3BF" opacity="1.000000" stroke="none" 
	d="
M437.670013,12.324771 
	C438.049713,12.792696 438.017212,13.143075 437.743286,13.926788 
	C437.395172,14.899267 437.288483,15.438411 437.181763,15.977554 
	C437.128113,53.951633 437.073334,91.925713 437.022644,129.899796 
	C437.017761,133.564026 437.038483,137.228271 437.030762,141.663452 
	C437.004456,142.644394 436.994690,142.854416 436.984924,143.064423 
	C436.602356,141.587555 435.887970,140.111206 435.885651,138.633743 
	C435.821838,98.065109 435.814484,57.496334 435.887573,16.927746 
	C435.890411,15.353418 436.780914,13.780694 437.670013,12.324771 
z"/>
<path fill="#111B2A" opacity="1.000000" stroke="none" 
	d="
M354.002441,159.997559 
	C350.825806,160.816895 347.690033,162.003418 344.462189,162.362961 
	C340.396027,162.815872 338.577606,164.561310 339.115753,168.615570 
	C339.374847,170.567230 339.808502,172.501022 339.973083,174.458862 
	C340.312866,178.500854 344.113251,180.707260 349.198395,179.795441 
	C354.298920,178.880875 359.412842,178.041214 364.939972,177.301437 
	C356.913544,182.687531 347.758881,182.451584 338.143799,180.820831 
	C338.143799,174.032059 338.143799,167.145279 338.143799,160.653473 
	C343.105713,160.040955 347.953461,159.442535 353.311584,159.063873 
	C353.882172,159.521606 353.942322,159.759583 354.002441,159.997559 
z"/>
<path fill="#0D182A" opacity="1.000000" stroke="none" 
	d="
M418.991455,52.011784 
	C415.022705,52.011330 411.018707,52.344704 407.093597,51.930462 
	C401.513550,51.341560 398.910645,54.266033 397.519104,58.994114 
	C395.572571,65.607925 393.726501,72.251289 391.787506,78.867386 
	C391.671722,79.262505 391.113922,79.528091 390.060425,79.903862 
	C389.135040,79.929024 388.911102,79.904289 388.687134,79.879547 
	C388.774933,79.456238 388.862732,79.032928 389.237061,78.157341 
	C389.752106,77.449776 389.865387,77.150803 389.863403,76.808151 
	C389.863403,76.808151 389.884674,76.908073 390.086029,76.823761 
	C390.281189,76.171066 390.275024,75.602676 390.268860,75.034294 
	C392.874390,67.133408 395.479889,59.232525 398.631714,51.055759 
	C399.462860,50.358543 399.747742,49.937206 400.032593,49.515865 
	C406.050262,49.432831 412.067902,49.349796 418.544525,49.691216 
	C418.999481,50.747704 418.995453,51.379742 418.991455,52.011784 
z"/>
<path fill="#0B1525" opacity="1.000000" stroke="none" 
	d="
M258.013367,140.953918 
	C265.233124,140.973206 272.474213,141.304932 279.659180,140.814728 
	C281.721405,140.674026 284.519104,138.582901 285.430115,136.654190 
	C288.319519,130.536926 290.476990,124.073967 293.212341,117.523041 
	C293.712341,117.626755 293.917389,117.952080 294.122437,118.277397 
	C291.241821,126.074623 288.418976,133.894348 285.404144,141.639328 
	C285.045471,142.560715 283.637421,143.683685 282.718262,143.681488 
	C274.514404,143.661926 266.311066,143.410477 258.021179,142.475830 
	C257.960968,141.467529 257.987152,141.210724 258.013367,140.953918 
z"/>
<path fill="#0A1323" opacity="1.000000" stroke="none" 
	d="
M154.966858,71.432182 
	C156.265778,70.718300 157.898285,69.191635 159.611343,69.095116 
	C170.739090,68.468117 172.404022,66.661118 170.910812,55.725128 
	C170.626022,53.639267 169.975327,51.603367 169.172195,48.171856 
	C163.223251,49.451141 157.415329,50.700100 151.204834,51.905003 
	C157.196976,46.663223 164.559433,47.297836 172.144867,48.239136 
	C172.144867,55.626080 172.144867,62.908886 172.144867,69.737648 
	C166.543243,70.251961 160.940475,70.766388 154.966858,71.432182 
z"/>
<path fill="#0B1728" opacity="1.000000" stroke="none" 
	d="
M94.534866,78.961945 
	C94.318222,78.038712 94.009079,76.665817 94.556709,75.934563 
	C100.450516,68.064774 100.907791,59.170212 99.457489,49.998814 
	C98.587349,44.496300 97.215881,39.073059 96.111542,33.204285 
	C104.586555,45.841949 103.934525,68.690262 94.534866,78.961945 
z"/>
<path fill="#0B1728" opacity="1.000000" stroke="none" 
	d="
M34.524639,98.058846 
	C35.637810,97.412987 37.184128,96.169235 38.790977,96.085365 
	C48.570396,95.574959 58.370819,95.458977 68.147926,94.917152 
	C71.220291,94.746895 74.242386,93.669342 77.712349,93.024048 
	C71.984787,97.370384 64.751587,97.491486 57.727627,97.880028 
	C50.167980,98.298195 42.568092,97.988907 34.524639,98.058846 
z"/>
<path fill="#0E192A" opacity="1.000000" stroke="none" 
	d="
M352.984131,55.034958 
	C352.400726,54.215908 351.817352,53.396862 350.885071,52.018394 
	C349.359344,51.306839 348.182434,51.154709 347.005554,51.002579 
	C342.057831,51.340023 337.084137,51.486580 332.181061,52.152542 
	C330.992981,52.313908 330.037598,54.188450 328.943573,55.705372 
	C327.982819,54.318626 327.053680,52.501717 326.316650,50.253609 
	C326.725525,49.677929 326.883270,49.485138 326.981995,49.244030 
	C333.894653,49.209690 340.814056,49.342533 347.716980,49.065624 
	C350.845062,48.940140 352.629364,49.830860 353.053833,53.688019 
	C353.016449,54.609722 353.000275,54.822338 352.984131,55.034958 
z"/>
<path fill="#111D2D" opacity="1.000000" stroke="none" 
	d="
M258.003174,140.553680 
	C257.987152,141.210724 257.960968,141.467529 257.876617,142.107239 
	C253.502182,131.250320 249.185913,120.010483 244.975098,108.387665 
	C246.341766,109.696251 247.948868,111.235214 248.779007,113.116951 
	C249.886520,115.627487 250.272949,118.444939 251.176758,121.058754 
	C253.385239,127.445641 255.713135,133.791229 258.003174,140.553680 
z"/>
<path fill="#298AA5" opacity="1.000000" stroke="none" 
	d="
M461.007538,33.060581 
	C479.822723,33.028931 498.638031,33.019073 517.453003,32.933006 
	C519.404724,32.924076 521.354309,32.462261 523.695312,32.041668 
	C525.905823,34.974186 523.114502,34.030132 522.002930,34.042000 
	C513.566406,34.132095 505.128540,34.105431 496.691101,34.102863 
	C485.110321,34.099335 473.529572,34.084980 461.479279,33.785591 
	C461.009766,33.495911 461.007538,33.060581 461.007538,33.060581 
z"/>
<path fill="#0B172A" opacity="1.000000" stroke="none" 
	d="
M117.989548,53.673050 
	C117.530220,54.256413 117.077538,54.504066 116.391891,54.865749 
	C116.089851,53.502949 116.020775,52.026119 115.937920,50.254864 
	C123.550110,50.254864 131.036331,50.254864 139.115295,50.254864 
	C139.115295,55.614124 139.115295,60.980335 139.480042,66.546021 
	C139.624344,67.272545 139.403885,67.799583 139.183426,68.326614 
	C138.453522,67.439919 137.723633,66.553223 136.985870,65.082336 
	C136.977997,64.498138 136.968933,64.021400 136.968933,64.021400 
	C136.968506,63.565758 136.968094,63.110115 136.964447,62.077831 
	C136.961243,61.501190 136.944336,61.030346 136.944336,61.030346 
	C136.962860,59.953346 136.981384,58.876343 136.999512,56.958641 
	C136.882080,54.535488 136.765030,52.953037 136.588501,50.566334 
	C130.027603,51.070793 124.019463,51.532753 118.011330,51.994713 
	C118.006279,52.442253 118.001236,52.889801 117.989548,53.673050 
z"/>
<path fill="#0B1527" opacity="1.000000" stroke="none" 
	d="
M388.396301,80.097107 
	C388.911102,79.904289 389.135040,79.929024 389.695984,79.984238 
	C386.465912,90.421486 382.917572,100.834793 379.288330,111.219826 
	C379.056122,111.884262 378.197540,112.329788 377.265167,112.907928 
	C380.635132,102.064018 384.370300,91.189339 388.396301,80.097107 
z"/>
<path fill="#0D1928" opacity="1.000000" stroke="none" 
	d="
M184.091232,26.375675 
	C186.631058,28.154448 189.193329,30.212612 191.589569,32.448681 
	C196.117508,36.673954 201.009460,35.421913 205.995071,33.637688 
	C206.749512,33.367683 207.554184,33.238075 208.742889,33.070763 
	C200.347961,40.782990 188.703934,37.832684 184.091232,26.375675 
z"/>
<path fill="#4CABC8" opacity="1.000000" stroke="none" 
	d="
M570.951782,104.513931 
	C570.579285,104.222374 570.060425,103.472664 570.062073,102.724121 
	C570.100952,85.383232 570.196228,68.042465 570.516846,50.370483 
	C570.851013,68.044975 570.949463,86.050659 570.951782,104.513931 
z"/>
<path fill="#0D182A" opacity="1.000000" stroke="none" 
	d="
M204.954376,9.159391 
	C204.706543,9.611211 204.031357,10.255646 203.551254,10.133482 
	C196.018768,8.216833 191.005066,12.769918 185.482788,16.952744 
	C187.734772,9.226094 195.119156,6.193409 204.954376,9.159391 
z"/>
<path fill="#0D1A2C" opacity="1.000000" stroke="none" 
	d="
M61.384201,13.973024 
	C60.961487,13.559157 60.972691,13.162901 60.983978,12.468884 
	C67.647186,13.939418 74.361618,15.542170 80.940811,17.581291 
	C82.808548,18.160168 84.282181,20.010593 86.021774,21.618881 
	C81.388252,19.966278 76.753098,17.730324 71.921417,16.064259 
	C68.698517,14.952933 65.195679,14.653451 61.384201,13.973024 
z"/>
<path fill="#0B1527" opacity="1.000000" stroke="none" 
	d="
M411.425354,81.088699 
	C411.947845,78.044968 412.684601,74.792435 413.677887,71.620216 
	C414.649811,68.516258 415.785004,65.453011 417.042908,62.453392 
	C417.675232,60.945549 418.739014,59.618641 419.991333,58.263405 
	C417.500610,65.849617 414.626282,73.382347 411.425354,81.088699 
z"/>
<path fill="#0B1527" opacity="1.000000" stroke="none" 
	d="
M231.852905,74.744934 
	C231.858856,74.134537 231.897614,73.897415 231.986710,73.302780 
	C234.349426,78.091393 236.765472,83.194633 238.920700,88.405739 
	C239.728363,90.358574 239.929306,92.562325 240.110931,94.875031 
	C237.171890,88.438332 234.528809,81.778275 231.852905,74.744934 
z"/>
<path fill="#121B2D" opacity="1.000000" stroke="none" 
	d="
M352.985962,55.428291 
	C353.000275,54.822338 353.016449,54.609722 353.064880,54.078888 
	C355.864899,60.948444 358.632629,68.136215 361.384766,75.704170 
	C361.369141,76.084351 361.124908,76.151176 361.124908,76.151184 
	C359.732330,73.616150 358.039886,71.195786 357.016693,68.519539 
	C355.433563,64.378708 354.307617,60.063114 352.985962,55.428291 
z"/>
<path fill="#0D1928" opacity="1.000000" stroke="none" 
	d="
M395.512329,122.924561 
	C395.255798,115.619621 398.668823,109.335564 402.602661,103.049683 
	C400.578217,109.578941 398.202545,116.169868 395.512329,122.924561 
z"/>
<path fill="#298CAD" opacity="1.000000" stroke="none" 
	d="
M459.015930,128.997330 
	C459.167175,116.524025 459.318390,104.050728 459.830811,91.384537 
	C460.155212,103.479576 460.118439,115.767502 459.774902,128.524750 
	C459.468170,128.994064 459.015930,128.997330 459.015930,128.997330 
z"/>
<path fill="#121E2F" opacity="1.000000" stroke="none" 
	d="
M294.412933,118.048752 
	C293.917389,117.952080 293.712341,117.626755 293.258789,117.151657 
	C295.714935,110.717041 298.419556,104.432198 301.461853,98.073105 
	C299.434174,104.605942 297.068787,111.213020 294.412933,118.048752 
z"/>
<path fill="#0D1928" opacity="1.000000" stroke="none" 
	d="
M209.422440,33.007477 
	C209.889114,31.080572 211.350037,29.008820 211.335876,26.947189 
	C211.305527,22.523830 210.514053,18.105698 210.054993,13.280514 
	C215.296204,19.388876 215.184814,26.184114 209.422440,33.007477 
z"/>
<path fill="#0B1525" opacity="1.000000" stroke="none" 
	d="
M278.610962,98.232811 
	C279.070282,97.980644 279.254364,97.974190 279.714355,97.953491 
	C277.672455,104.205559 275.354706,110.471886 272.700745,116.807724 
	C274.354919,110.744339 276.345337,104.611435 278.610962,98.232811 
z"/>
<path fill="#298CAD" opacity="1.000000" stroke="none" 
	d="
M460.610291,33.134621 
	C461.007538,33.060581 461.009766,33.495911 461.016968,33.713470 
	C460.716492,36.150269 460.169983,38.366634 460.143280,40.589245 
	C460.037415,49.400146 460.094147,58.213009 460.038177,67.485138 
	C459.985687,67.945122 459.493683,67.987602 459.246826,67.994415 
	C458.985321,58.060955 458.912872,48.120106 459.012695,38.180988 
	C459.029388,36.519691 459.794006,34.865910 460.610291,33.134621 
z"/>
<path fill="#2F9CBF" opacity="1.000000" stroke="none" 
	d="
M569.582886,32.067505 
	C569.842651,27.115669 570.409546,21.985605 571.008972,16.390924 
	C574.514099,21.525509 573.538940,26.803843 569.582886,32.067505 
z"/>
<path fill="#2F9CBF" opacity="1.000000" stroke="none" 
	d="
M567.882446,11.668137 
	C562.980042,11.655871 557.907288,11.330037 552.418945,10.768711 
	C552.003418,10.533217 552.010254,10.049332 552.010254,10.049332 
	C557.505005,7.347003 562.718933,8.023228 567.882446,11.668137 
z"/>
<path fill="#218EBA" opacity="1.000000" stroke="none" 
	d="
M437.220978,143.106888 
	C436.994690,142.854416 437.004456,142.644394 437.051819,142.119324 
	C444.050598,141.853699 451.011780,141.903091 458.465027,141.955795 
	C458.957153,141.959106 459.015228,142.015259 459.028503,142.283844 
	C459.050568,142.731476 459.059418,142.910538 459.068268,143.089615 
	C459.068268,143.089615 458.992584,143.018555 458.668213,142.983231 
	C457.854736,142.997574 457.365601,143.047256 456.876465,143.096939 
	C456.489929,143.137436 456.103363,143.177933 454.984680,143.086182 
	C452.455017,143.004059 450.657471,143.054184 448.859924,143.104279 
	C448.476654,143.143051 448.093384,143.181824 446.967346,143.088715 
	C443.459259,142.991638 440.693909,143.026443 437.928558,143.061249 
	C437.928558,143.061249 437.457031,143.149353 437.220978,143.106888 
z"/>
<path fill="#0E1C31" opacity="1.000000" stroke="none" 
	d="
M354.366882,159.991608 
	C353.942322,159.759583 353.882172,159.521606 353.697754,158.937012 
	C353.573486,158.590378 353.605835,158.607452 353.890015,158.618073 
	C354.430206,158.371414 354.686188,158.114166 354.942169,157.856903 
	C356.725616,155.586273 358.509094,153.315659 360.596100,150.883835 
	C361.413788,155.521866 358.367554,157.950226 354.366882,159.991608 
z"/>
<path fill="#2F9CBF" opacity="1.000000" stroke="none" 
	d="
M551.147461,35.365089 
	C555.398560,35.058910 559.876343,35.071278 564.780029,35.193249 
	C560.680908,38.535698 556.038879,37.523518 551.147461,35.365089 
z"/>
<path fill="#0D1928" opacity="1.000000" stroke="none" 
	d="
M403.411926,102.081871 
	C404.175354,98.879395 405.262421,95.502419 406.718140,92.061172 
	C405.969696,95.300385 404.852600,98.603874 403.411926,102.081871 
z"/>
<path fill="#0E192A" opacity="1.000000" stroke="none" 
	d="
M379.381287,162.958008 
	C380.454437,160.122833 381.826782,157.115219 383.539093,154.047897 
	C382.479553,156.920670 381.080017,159.853119 379.381287,162.958008 
z"/>
<path fill="#0A1323" opacity="1.000000" stroke="none" 
	d="
M150.547852,51.893265 
	C151.428711,55.619766 148.802368,56.407108 145.578888,56.988171 
	C146.884064,55.329464 148.555786,53.657696 150.547852,51.893265 
z"/>
<path fill="#0E192A" opacity="1.000000" stroke="none" 
	d="
M330.616058,60.999474 
	C331.882355,63.651215 333.301514,66.619698 334.523865,69.960617 
	C333.141022,67.327431 331.954956,64.321823 330.616058,60.999474 
z"/>
<path fill="#399CBE" opacity="1.000000" stroke="none" 
	d="
M545.485229,16.725700 
	C545.806213,20.443317 545.811462,24.428797 545.727966,28.831942 
	C542.803345,25.266972 543.439148,21.151247 545.485229,16.725700 
z"/>
<path fill="#0B1527" opacity="1.000000" stroke="none" 
	d="
M419.305176,52.172138 
	C418.995453,51.379742 418.999481,50.747704 419.000854,49.799854 
	C419.740784,49.406010 420.483398,49.327972 421.638977,49.579781 
	C422.414703,50.290001 422.777405,50.670368 423.140137,51.050739 
	C422.646973,52.606369 422.153809,54.161995 421.373962,55.925247 
	C420.597870,54.866081 420.108368,53.599289 419.305176,52.172138 
z"/>
<path fill="#0E1C31" opacity="1.000000" stroke="none" 
	d="
M363.049561,145.318100 
	C363.583771,144.999161 363.987061,145.000565 364.692749,145.002808 
	C364.990021,147.319031 365.283478,149.821564 361.486084,150.006439 
	C361.711090,148.556793 362.314880,147.097610 363.049561,145.318100 
z"/>
<path fill="#48A3BF" opacity="1.000000" stroke="none" 
	d="
M522.287415,14.232507 
	C521.992676,13.687505 521.959290,13.353170 521.913208,12.767816 
	C527.481873,11.665787 524.583130,15.591537 524.501953,17.970339 
	C523.624207,16.949104 523.086487,15.696138 522.287415,14.232507 
z"/>
<path fill="#0F192A" opacity="1.000000" stroke="none" 
	d="
M266.102295,102.738144 
	C265.305573,101.189926 264.686707,99.397423 264.127625,97.184555 
	C264.884979,98.674080 265.582550,100.583961 266.102295,102.738144 
z"/>
<path fill="#218EBA" opacity="1.000000" stroke="none" 
	d="
M459.000244,129.460236 
	C459.015930,128.997330 459.468170,128.994064 459.694153,128.986038 
	C459.970306,129.149963 460.020477,129.321930 459.985260,130.216599 
	C459.990387,134.381760 460.080872,137.824188 460.171356,141.266632 
	C460.171356,141.266632 460.337799,141.680588 459.990814,141.865723 
	C459.434296,142.038986 459.224762,142.027115 459.015228,142.015259 
	C459.015228,142.015259 458.957153,141.959106 458.926392,141.930588 
	C458.925293,137.909088 458.954926,133.916122 459.000244,129.460236 
z"/>
<path fill="#4CABC8" opacity="1.000000" stroke="none" 
	d="
M570.612793,140.191803 
	C570.321472,136.576797 570.324707,132.618851 570.588989,128.347061 
	C570.869080,131.971756 570.888184,135.910309 570.612793,140.191803 
z"/>
<path fill="#051222" opacity="1.000000" stroke="none" 
	d="
M368.055359,92.629181 
	C367.008453,90.867233 366.023743,88.733368 365.081604,86.206833 
	C366.122009,87.961868 367.119781,90.109566 368.055359,92.629181 
z"/>
<path fill="#48A3BF" opacity="1.000000" stroke="none" 
	d="
M460.341278,140.891525 
	C460.080872,137.824188 459.990387,134.381760 459.951843,130.483200 
	C460.172943,133.523529 460.342072,137.019974 460.341278,140.891525 
z"/>
<path fill="#0E192A" opacity="1.000000" stroke="none" 
	d="
M364.995911,176.001144 
	C365.152588,172.351501 367.699890,174.064713 369.813171,174.029190 
	C369.399536,174.699478 368.632446,175.351913 367.184143,176.023956 
	C366.000641,176.029419 365.498260,176.015289 364.995911,176.001144 
z"/>
<path fill="#0B1728" opacity="1.000000" stroke="none" 
	d="
M96.140984,32.526932 
	C95.149223,31.785841 94.088310,30.716866 93.033875,29.266237 
	C94.050850,29.989403 95.061340,31.094223 96.140984,32.526932 
z"/>
<path fill="#48A3BF" opacity="1.000000" stroke="none" 
	d="
M438.277344,143.222229 
	C440.693909,143.026443 443.459259,142.991638 446.682922,143.030273 
	C444.302887,143.196884 441.464508,143.290039 438.277344,143.222229 
z"/>
<path fill="#0E192A" opacity="1.000000" stroke="none" 
	d="
M374.408875,170.029953 
	C374.890900,168.812424 375.671631,167.463791 376.831757,166.130859 
	C376.376648,167.397339 375.542114,168.648087 374.408875,170.029953 
z"/>
<path fill="#0A1323" opacity="1.000000" stroke="none" 
	d="
M150.321228,73.774696 
	C149.884766,71.102951 151.410522,70.710152 153.984924,71.453964 
	C153.116714,72.338951 151.872894,73.033455 150.321228,73.774696 
z"/>
<path fill="#2F9CBF" opacity="1.000000" stroke="none" 
	d="
M565.602539,35.331532 
	C566.376526,34.324677 567.488403,33.293377 568.953735,32.231373 
	C568.184875,33.236141 567.062622,34.271614 565.602539,35.331532 
z"/>
<path fill="#0F192A" opacity="1.000000" stroke="none" 
	d="
M267.873169,106.647476 
	C267.233551,106.197861 266.630066,105.417755 266.027740,104.292343 
	C266.655731,104.737022 267.282501,105.527008 267.873169,106.647476 
z"/>
<path fill="#0E192A" opacity="1.000000" stroke="none" 
	d="
M371.366058,173.092987 
	C371.838623,172.162949 372.606140,171.106964 373.768066,170.079941 
	C373.328674,171.061615 372.494843,172.014343 371.366058,173.092987 
z"/>
<path fill="#051222" opacity="1.000000" stroke="none" 
	d="
M361.076233,76.513496 
	C361.124908,76.151176 361.369141,76.084351 361.491241,76.050919 
	C362.123718,77.112411 362.634094,78.207329 363.085602,79.671791 
	C362.360352,78.986168 361.693939,77.930992 361.076233,76.513496 
z"/>
<path fill="#48A3BF" opacity="1.000000" stroke="none" 
	d="
M449.182556,143.257904 
	C450.657471,143.054184 452.455017,143.004059 454.697510,143.027832 
	C453.263367,143.205002 451.384247,143.308258 449.182556,143.257904 
z"/>
<path fill="#0E192A" opacity="1.000000" stroke="none" 
	d="
M328.890076,56.384720 
	C329.475128,57.247738 330.091187,58.437862 330.505981,59.965229 
	C329.843536,59.105587 329.382294,57.908707 328.890076,56.384720 
z"/>
<path fill="#0D182A" opacity="1.000000" stroke="none" 
	d="
M206.999756,11.999474 
	C206.448135,11.390780 205.896500,10.782088 205.495255,9.841454 
	C206.310791,9.856539 206.975937,10.203567 207.592560,10.888729 
	C207.277542,11.424493 207.096130,11.682029 206.999756,11.999474 
z"/>
<path fill="#399CBE" opacity="1.000000" stroke="none" 
	d="
M545.622681,29.652256 
	C546.336487,30.091703 547.090820,30.846283 547.732666,31.959249 
	C546.967957,31.534224 546.315552,30.750805 545.622681,29.652256 
z"/>
<path fill="#0E192A" opacity="1.000000" stroke="none" 
	d="
M386.394257,147.038757 
	C386.363251,146.183945 386.611145,145.201981 387.164185,144.115372 
	C387.203888,144.977676 386.938538,145.944656 386.394257,147.038757 
z"/>
<path fill="#0B172A" opacity="1.000000" stroke="none" 
	d="
M140.678757,64.152168 
	C140.775970,64.908592 140.579865,65.822433 140.078201,66.803864 
	C139.976898,66.017494 140.181168,65.163544 140.678757,64.152168 
z"/>
<path fill="#1D2431" opacity="1.000000" stroke="none" 
	d="
M423.432312,50.893990 
	C422.777405,50.670368 422.414703,50.290001 422.010712,49.640541 
	C422.554474,49.826714 423.139496,50.281979 423.432312,50.893990 
z"/>
<path fill="#2F9CBF" opacity="1.000000" stroke="none" 
	d="
M549.043945,32.943130 
	C549.627258,33.466984 550.210632,33.990826 550.885864,34.800064 
	C550.442688,34.850594 549.907593,34.615726 549.197266,33.901932 
	C549.021973,33.423004 549.043945,32.943123 549.043945,32.943130 
z"/>
<path fill="#0E192A" opacity="1.000000" stroke="none" 
	d="
M385.553772,150.068481 
	C385.367676,149.329788 385.462982,148.377182 385.882629,147.242004 
	C386.083008,147.991165 385.959076,148.922852 385.553772,150.068481 
z"/>
<path fill="#0E192A" opacity="1.000000" stroke="none" 
	d="
M384.347992,152.998474 
	C384.268463,152.266632 384.473846,151.344177 385.025909,150.299881 
	C385.126038,151.054657 384.879456,151.931259 384.347992,152.998474 
z"/>
<path fill="#051222" opacity="1.000000" stroke="none" 
	d="
M365.175476,85.574112 
	C364.825653,85.139755 364.418091,84.351654 364.026489,83.196777 
	C364.400909,83.626785 364.759338,84.423576 365.175476,85.574112 
z"/>
<path fill="#1B2332" opacity="1.000000" stroke="none" 
	d="
M315.452209,62.210770 
	C315.299500,61.720333 315.447083,61.067673 315.897339,60.244797 
	C316.050842,60.732574 315.901703,61.390560 315.452209,62.210770 
z"/>
<path fill="#111B2A" opacity="1.000000" stroke="none" 
	d="
M365.069305,176.358368 
	C365.498260,176.015289 366.000641,176.029419 366.878693,176.073288 
	C366.836365,176.482346 366.418335,176.861679 365.712982,177.314438 
	C365.331329,177.163788 365.237030,176.939697 365.069305,176.358368 
z"/>
<path fill="#0B1527" opacity="1.000000" stroke="none" 
	d="
M420.601685,58.121586 
	C420.422424,57.679806 420.488068,57.035625 420.847290,56.218155 
	C421.042786,56.669636 420.944702,57.294411 420.601685,58.121586 
z"/>
<path fill="#1D2431" opacity="1.000000" stroke="none" 
	d="
M399.753235,49.439899 
	C399.747742,49.937206 399.462860,50.358543 398.915344,50.822453 
	C398.926422,50.364658 399.200134,49.864292 399.753235,49.439899 
z"/>
<path fill="#0D1928" opacity="1.000000" stroke="none" 
	d="
M207.354446,12.000578 
	C207.096130,11.682029 207.277542,11.424493 207.757828,11.118839 
	C208.284943,11.148921 208.598221,11.287031 209.018494,11.673090 
	C208.653351,11.947919 208.181244,11.974800 207.354446,12.000578 
z"/>
<path fill="#399CBE" opacity="1.000000" stroke="none" 
	d="
M548.794556,12.196712 
	C548.808899,12.641809 548.540955,13.169613 547.958374,13.719051 
	C547.933228,13.253596 548.222778,12.766507 548.794556,12.196712 
z"/>
<path fill="#399CBE" opacity="1.000000" stroke="none" 
	d="
M550.660339,10.890182 
	C550.543274,11.248891 550.133850,11.635196 549.423706,12.051676 
	C549.537903,11.693827 549.953003,11.305802 550.660339,10.890182 
z"/>
<path fill="#48A3BF" opacity="1.000000" stroke="none" 
	d="
M457.078400,143.222015 
	C457.365601,143.047256 457.854736,142.997574 458.708588,143.013397 
	C458.475647,143.168304 457.877991,143.257706 457.078400,143.222015 
z"/>
<path fill="#0B1527" opacity="1.000000" stroke="none" 
	d="
M390.127502,75.323517 
	C390.275024,75.602676 390.281189,76.171066 390.036346,76.811821 
	C389.852264,76.460373 389.919220,76.036552 390.127502,75.323517 
z"/>
<path fill="#0E192A" opacity="1.000000" stroke="none" 
	d="
M377.425293,166.080505 
	C377.372192,165.608688 377.589874,165.015427 378.147766,164.397644 
	C378.224030,164.901764 377.960083,165.430405 377.425293,166.080505 
z"/>
<path fill="#399CBE" opacity="1.000000" stroke="none" 
	d="
M548.873718,32.717190 
	C549.043945,32.943123 549.021973,33.423004 549.014465,33.662907 
	C548.585693,33.567390 548.164429,33.231972 547.686401,32.623974 
	C547.987610,32.398014 548.345520,32.444633 548.873718,32.717190 
z"/>
<path fill="#111B2A" opacity="1.000000" stroke="none" 
	d="
M354.683105,157.910202 
	C354.686188,158.114166 354.430206,158.371414 353.890991,158.600891 
	C353.879883,158.369904 354.151978,158.166687 354.683105,157.910202 
z"/>
<path fill="#399CBE" opacity="1.000000" stroke="none" 
	d="
M546.575073,14.892675 
	C546.709961,15.126047 546.573975,15.467931 546.181763,15.937270 
	C546.051758,15.710213 546.177979,15.355700 546.575073,14.892675 
z"/>
<path fill="#0E192A" opacity="1.000000" stroke="none" 
	d="
M378.657776,164.229156 
	C378.513672,164.037628 378.574615,163.679260 378.887512,163.183868 
	C379.047272,163.385345 378.955017,163.723831 378.657776,164.229156 
z"/>
<path fill="#121B2D" opacity="1.000000" stroke="none" 
	d="
M326.728821,49.170048 
	C326.883270,49.485138 326.725525,49.677929 326.338074,49.903851 
	C326.270172,49.688885 326.372925,49.392475 326.728821,49.170048 
z"/>
<path fill="#2F9CBF" opacity="1.000000" stroke="none" 
	d="
M571.047424,15.668188 
	C570.779846,15.694755 570.483887,15.399179 570.159241,14.776774 
	C570.426697,14.748645 570.722900,15.047346 571.047424,15.668188 
z"/>
<path fill="#4CABC8" opacity="1.000000" stroke="none" 
	d="
M570.341187,143.038361 
	C570.098206,142.818604 570.146667,142.536926 570.352234,141.854874 
	C570.550415,141.961807 570.591553,142.469131 570.341187,143.038361 
z"/>
<path fill="#48A3BF" opacity="1.000000" stroke="none" 
	d="
M459.028503,142.283844 
	C459.224762,142.027115 459.434296,142.038986 459.957642,142.086319 
	C460.077301,142.453079 459.883209,142.784363 459.378662,143.102631 
	C459.059418,142.910538 459.050568,142.731476 459.028503,142.283844 
z"/>
<path fill="#0B1527" opacity="1.000000" stroke="none" 
	d="
M389.610352,76.908813 
	C389.865387,77.150803 389.752106,77.449776 389.323151,77.844673 
	C389.200897,77.659348 389.279114,77.334419 389.610352,76.908813 
z"/>
<path fill="#399CBE" opacity="1.000000" stroke="none" 
	d="
M547.458862,13.784969 
	C547.590942,14.036006 547.464111,14.381105 547.052002,14.795200 
	C546.911194,14.535807 547.055542,14.207419 547.458862,13.784969 
z"/>
<path fill="#399CBE" opacity="1.000000" stroke="none" 
	d="
M551.744751,10.061790 
	C552.010254,10.049332 552.003418,10.533217 552.003540,10.775767 
	C551.821106,11.016247 551.638611,11.014177 551.184265,10.969892 
	C551.101379,10.643200 551.290283,10.358725 551.744751,10.061790 
z"/>
<path fill="#0B1728" opacity="1.000000" stroke="none" 
	d="
M33.938065,98.778168 
	C33.852856,99.013992 33.428158,99.000565 33.215740,99.000168 
	C33.213997,98.739029 33.424667,98.478279 33.878052,98.133957 
	C34.088268,98.214371 34.055771,98.378349 33.938065,98.778168 
z"/>
<path fill="#2F9CBF" opacity="1.000000" stroke="none" 
	d="
M569.966858,13.785358 
	C569.725281,13.853075 569.449402,13.642118 569.097961,13.176848 
	C569.325806,13.117252 569.629150,13.311970 569.966858,13.785358 
z"/>
<path fill="#2F9CBF" opacity="1.000000" stroke="none" 
	d="
M569.001099,12.716406 
	C568.780884,12.800963 568.484070,12.623896 568.095825,12.196608 
	C568.311035,12.115852 568.617798,12.285316 569.001099,12.716406 
z"/>
<path fill="#051222" opacity="1.000000" stroke="none" 
	d="
M363.913727,81.712128 
	C363.648224,81.730286 363.421234,81.448273 363.141449,80.891914 
	C363.376526,80.882362 363.664368,81.147156 363.913727,81.712128 
z"/>
<path fill="#0D1928" opacity="1.000000" stroke="none" 
	d="
M210.049362,12.683108 
	C209.836884,12.753601 209.541565,12.562005 209.150818,12.117435 
	C209.359100,12.049982 209.662811,12.235500 210.049362,12.683108 
z"/>
<path fill="#FBFCFC" opacity="1.000000" stroke="none" 
	d="
M67.882378,71.971710 
	C67.413193,72.283051 66.944008,72.594391 65.884689,73.163147 
	C62.157436,74.331184 59.068073,75.746323 55.873383,76.048721 
	C48.953274,76.703735 41.979259,76.789215 35.027290,77.107605 
	C35.027290,77.107605 34.638409,76.924393 34.342667,76.472542 
	C34.130344,61.704727 34.213764,47.388767 34.297184,33.072803 
	C34.297184,33.072803 34.064907,33.079803 34.545853,33.159332 
	C45.659660,33.578056 56.487717,31.976521 66.707253,36.425201 
	C66.707253,36.425201 66.775848,36.279713 66.850952,36.527859 
	C67.273773,36.886200 67.621483,36.996395 67.969200,37.106586 
	C67.969200,37.106586 67.971962,37.028687 68.073349,37.324951 
	C69.160782,38.400734 70.146828,39.180256 71.246140,40.287643 
	C79.214531,51.466793 77.924797,63.097748 67.882378,71.971710 
z"/>
<path fill="#121E2F" opacity="1.000000" stroke="none" 
	d="
M68.260902,71.979149 
	C77.924797,63.097748 79.214531,51.466793 71.445984,40.277618 
	C71.532555,39.939724 71.932671,39.933285 71.932671,39.933285 
	C73.538254,42.022358 75.380096,43.972828 76.702965,46.227757 
	C80.027077,51.893970 77.851639,65.628197 72.978531,69.863960 
	C71.804314,70.884598 70.099976,71.295357 68.260902,71.979149 
z"/>
<path fill="#070F20" opacity="1.000000" stroke="none" 
	d="
M66.678490,36.039207 
	C56.487717,31.976521 45.659660,33.578056 34.564831,33.273964 
	C34.742340,32.879578 35.392941,32.061142 36.019627,32.079060 
	C45.102139,32.338776 54.186783,32.621555 63.254990,33.164703 
	C64.432030,33.235199 65.520325,34.787357 66.678490,36.039207 
z"/>
<path fill="#030A19" opacity="1.000000" stroke="none" 
	d="
M33.927422,33.289574 
	C34.213764,47.388767 34.130344,61.704727 34.127823,76.479004 
	C33.797924,75.943802 33.035221,74.952263 33.029636,73.956482 
	C32.957535,61.092506 32.985531,48.227909 33.025249,35.363579 
	C33.027161,34.743958 33.372334,34.125397 33.927422,33.289574 
z"/>
<path fill="#030A19" opacity="1.000000" stroke="none" 
	d="
M35.333050,77.385864 
	C41.979259,76.789215 48.953274,76.703735 55.873383,76.048721 
	C59.068073,75.746323 62.157436,74.331184 65.645058,73.328964 
	C62.269951,74.815208 58.647297,77.336937 54.795403,77.757095 
	C48.488300,78.445091 42.032116,77.766380 35.333050,77.385864 
z"/>
<path fill="#070F20" opacity="1.000000" stroke="none" 
	d="
M71.912506,39.579132 
	C71.932671,39.933285 71.532555,39.939724 71.332718,39.949753 
	C70.146828,39.180256 69.160782,38.400734 68.036530,37.337730 
	C69.229660,37.777824 70.560997,38.501404 71.912506,39.579132 
z"/>
<path fill="#070F20" opacity="1.000000" stroke="none" 
	d="
M67.829765,36.856777 
	C67.621483,36.996395 67.273773,36.886200 66.772934,36.547394 
	C66.976654,36.414845 67.333496,36.510906 67.829765,36.856777 
z"/>
<path fill="#18B0E7" opacity="1.000000" stroke="none" 
	d="
M437.587036,15.972908 
	C437.288483,15.438411 437.395172,14.899267 437.730347,14.191053 
	C465.321686,14.020168 492.684570,14.018353 520.512939,14.036525 
	C519.075623,14.371287 517.173584,14.954726 515.269897,14.959929 
	C492.295410,15.022717 469.320526,14.967217 446.346130,15.042428 
	C443.560547,15.051547 440.776855,15.645409 437.587036,15.972908 
z"/>
<path fill="#1DAEEA" opacity="1.000000" stroke="none" 
	d="
M463.333771,70.348618 
	C481.487274,70.178581 499.936157,70.294823 518.667969,70.713249 
	C502.320648,71.010895 485.690491,71.017563 469.060394,70.985809 
	C467.249786,70.982353 465.439575,70.757217 463.333771,70.348618 
z"/>
<path fill="#1DAEEA" opacity="1.000000" stroke="none" 
	d="
M459.115723,70.107071 
	C459.053345,69.926727 459.519775,69.968216 459.753174,69.984543 
	C459.717072,70.096375 459.447571,70.191895 459.115723,70.107071 
z"/>
<path fill="#121B2D" opacity="1.000000" stroke="none" 
	d="
M347.239319,51.270470 
	C348.182434,51.154709 349.359344,51.306839 350.763550,51.734413 
	C349.818298,51.852688 348.645721,51.695526 347.239319,51.270470 
z"/>
<path fill="#102640" opacity="1.000000" stroke="none" 
	d="
M118.478348,51.997276 
	C124.019463,51.532753 130.027603,51.070793 136.588501,50.566334 
	C136.765030,52.953037 136.882080,54.535488 136.997467,56.554665 
	C136.427490,55.501881 135.859192,54.012367 135.091324,51.999844 
	C129.850845,51.999844 124.398109,51.999844 118.478348,51.997276 
z"/>
<path fill="#102640" opacity="1.000000" stroke="none" 
	d="
M118.298843,64.712860 
	C118.014755,62.619686 118.012085,60.262070 118.014755,57.463535 
	C118.206818,59.497883 118.393547,61.973145 118.298843,64.712860 
z"/>
<path fill="#102640" opacity="1.000000" stroke="none" 
	d="
M118.178108,54.901794 
	C118.012169,54.987717 118.004341,54.496212 118.005898,54.250511 
	C118.119652,54.275166 118.231850,54.545521 118.178108,54.901794 
z"/>
<path fill="#102640" opacity="1.000000" stroke="none" 
	d="
M136.788269,61.113529 
	C136.944336,61.030346 136.961243,61.501190 136.954132,61.736233 
	C136.842087,61.713085 136.737137,61.454899 136.788269,61.113529 
z"/>
<path fill="#102640" opacity="1.000000" stroke="none" 
	d="
M136.808777,64.105179 
	C136.968933,64.021400 136.977997,64.498138 136.973145,64.736122 
	C136.861725,64.712387 136.755173,64.450668 136.808777,64.105179 
z"/>
<path fill="#022240" opacity="1.000000" stroke="none" 
	d="
M187.974945,117.999886 
	C187.696579,106.220795 187.220627,94.942001 187.200745,83.662407 
	C187.184082,74.215736 187.776550,64.769371 187.932281,55.320122 
	C187.977097,52.601074 189.199371,51.907604 191.613815,51.964790 
	C195.606033,52.059338 199.615662,52.190159 203.592697,51.925663 
	C207.181442,51.686996 208.098938,53.130428 208.075577,56.531055 
	C207.945175,75.504074 207.942551,94.478867 208.050934,113.452164 
	C208.091415,120.541145 208.497299,127.630203 208.833557,134.714615 
	C209.099564,140.318954 208.524200,140.988174 202.756577,141.013062 
	C199.760757,141.025986 196.739197,140.765152 193.774796,141.070328 
	C188.991745,141.562729 187.659988,139.435104 187.906815,134.973160 
	C188.209686,129.497543 187.976425,123.992287 187.974945,117.999886 
z"/>
<path fill="#0AAFE5" opacity="1.000000" stroke="none" 
	d="
M548.069336,139.991745 
	C548.051636,112.026703 548.090576,84.061378 547.951843,56.096935 
	C547.932251,52.134342 549.354370,50.661869 553.218445,50.959076 
	C558.293213,51.349422 565.022888,49.687042 567.974304,52.330849 
	C570.535400,54.625130 568.971313,61.685806 568.980347,66.640366 
	C569.025024,91.109924 568.986633,115.579643 568.496826,140.520523 
	C561.367188,140.658401 554.718262,140.325073 548.069336,139.991745 
z"/>
<path fill="#1CAEE4" opacity="1.000000" stroke="none" 
	d="
M548.139099,140.389679 
	C554.718262,140.325073 561.367188,140.658401 568.477539,140.987823 
	C562.028931,140.918457 555.118896,140.853027 548.139099,140.389679 
z"/>
</svg>